<svg xmlns="http://www.w3.org/2000/svg"
  xmlns:xlink="http://www.w3.org/1999/xlink"
  viewBox="0 0 185 185" width="512" height="512">
  <svg viewBox="205 56 185 185" width="185" height="185">

<svg version="1.1" xmlns="http://www.w3.org/2000/svg" viewBox="205 72 185 153">
<path d="M0 0 C0.67289062 0.2784375 1.34578125 0.556875 2.0390625 0.84375 C11.22029009 4.9558056 17.92313004 11.78071453 22 21 C22 22.32 22 23.64 22 25 C22.75925781 24.65066406 23.51851563 24.30132812 24.30078125 23.94140625 C25.79158203 23.25884766 25.79158203 23.25884766 27.3125 22.5625 C28.79169922 21.88380859 28.79169922 21.88380859 30.30078125 21.19140625 C39.28079807 17.22772299 49.30409181 18.04765296 58.4375 21.125 C69.22035342 25.44544353 77.08883641 32.36291756 82 43 C85.26786897 52.80360691 85.26629848 63.87781848 80.91796875 73.359375 C71.20899476 90.93065934 54.49599971 103.05341951 37 112 C36.33468262 112.34224609 35.66936523 112.68449219 34.98388672 113.03710938 C27.54705115 116.81489762 20.38722836 120.03300191 12 121 C11.95875 122.010625 11.9175 123.02125 11.875 124.0625 C11.2261606 128.81742757 8.41137119 131.7967496 5 135 C1.5176309 136.74118455 -2.20044946 136.57948084 -6 136 C-10.00535409 133.03952089 -12.29684015 129.66127959 -14 125 C-14.70048807 120.32723202 -14.51425265 116.35845123 -12.3125 112.125 C-9.9428696 108.92279676 -8.68996233 107.42566726 -5 106 C-0.99626547 105.41881273 1.42345841 105.11613374 4.96484375 107.1015625 C9.25933236 110.49720466 11.25215995 113.85929396 13 119 C34.34271943 110.86944022 56.95294838 97.60074256 67.08984375 76.26171875 C70.18319901 68.57479732 70.55468439 57.20982487 67.75 49.375 C62.88129555 39.9853557 56.32924975 33.0610041 46.46484375 28.8828125 C41.88458348 27.71580143 37.52570359 27.49225456 32.8125 27.4375 C31.96913086 27.42275635 31.12576172 27.4080127 30.25683594 27.39282227 C24.93972291 27.4799795 21.20808122 28.46982639 16.6003418 31.14477539 C15 32 15 32 13 32 C12.68289063 31.2265625 12.36578125 30.453125 12.0390625 29.65625 C7.54600271 19.62754196 1.77089286 13.75017649 -8.4375 9.5625 C-9.95100751 9.02074691 -11.47106675 8.49655263 -13 8 C-13.99 7.67 -14.98 7.34 -16 7 C-27.4499487 6.15339773 -36.31923695 7.54615796 -46 14 C-43.85060288 7.18367986 -38.01455365 3.17826707 -31.890625 -0.14453125 C-21.81390232 -4.51541737 -10.02671009 -4.59722676 0 0 Z " fill="#DB3F43" transform="translate(301,80)"/>
<path d="M0 0 C3.19026177 3.19026177 3.79383578 7.70004453 4.96875 11.97070312 C6.28577719 16.47610309 7.87078862 19.39807797 11 23 C11 23.66 11 24.32 11 25 C12.32 24.34 13.64 23.68 15 23 C15.33 23.66 15.66 24.32 16 25 C16.598125 24.175 17.19625 23.35 17.8125 22.5 C22.21749415 17.19628578 29.0261342 11.13222762 36 10 C34.6744419 13.62276315 33.05653045 16.63505348 30.875 19.8125 C30.33617187 20.60269531 29.79734375 21.39289063 29.2421875 22.20703125 C28.83226562 22.79871094 28.42234375 23.39039063 28 24 C29.051875 22.9171875 29.051875 22.9171875 30.125 21.8125 C32.92770745 19.00176187 35.92262792 16.50483774 39 14 C39.495 14.99 39.495 14.99 40 16 C39.24966943 17.85964282 38.42365341 19.68901072 37.5625 21.5 C35.05482508 27.23578683 34.38339638 31.80655919 35 38 C36.5159375 37.7525 36.5159375 37.7525 38.0625 37.5 C42.32675098 36.96984988 46.58251829 36.85349302 50.875 36.8125 C52.17179687 36.79832031 53.46859375 36.78414062 54.8046875 36.76953125 C58 37 58 37 60 39 C59.17757812 39.24234375 58.35515625 39.4846875 57.5078125 39.734375 C37.13675283 45.73447292 37.13675283 45.73447292 22 60 C21.29461346 61.65065201 20.61922523 63.31513136 20 65 C5.27936428 59.45522721 -4.52258777 52.24950206 -11.15234375 37.7109375 C-12.09999819 34.68019011 -12.15275996 32.15703916 -12 29 C-7.125 33.625 -7.125 33.625 -6 37 C-3.44829129 38.5838192 -0.92393881 39.37344168 2 40 C1.67 38.68 1.34 37.36 1 36 C0.236875 36.061875 -0.52625 36.12375 -1.3125 36.1875 C-4 36 -4 36 -5.8125 34.8125 C-7.42525784 32.35092224 -7.4334014 30.88934264 -7 28 C-5.625 26.1875 -5.625 26.1875 -4 25 C-3.34 25 -2.68 25 -2 25 C-2.02320313 23.69804687 -2.04640625 22.39609375 -2.0703125 21.0546875 C-2.08907942 19.32813076 -2.10727863 17.60156779 -2.125 15.875 C-2.15013672 14.59109375 -2.15013672 14.59109375 -2.17578125 13.28125 C-2.21306681 8.43412707 -1.89580643 4.55292095 0 0 Z " fill="#71B157" transform="translate(299,122)"/>
<path d="M0 0 C1.31973289 3.95919868 0.28748162 5.34821401 -1.25 9.1875 C-8.20527237 27.72360326 -10.10683786 48.26155555 -3 67 C-2.69964844 67.83789062 -2.39929688 68.67578125 -2.08984375 69.5390625 C2.64282878 81.46293875 12.84495029 91.1103025 22.8125 98.8125 C27.09682569 102.15305189 31.01003963 105.75395449 34.875 109.5625 C35.42260986 110.09270752 35.97021973 110.62291504 36.53442383 111.16918945 C43.3423141 117.98548064 46.96285057 125.57665351 47.25 135.25 C47.0299443 138.55083554 46.80055475 140.29916788 45 143 C44.67 143 44.34 143 44 143 C43.98582031 142.24976563 43.97164063 141.49953125 43.95703125 140.7265625 C43.41889884 129.17853176 39.29892324 120.98575633 31 113 C27.4195382 109.88800984 23.72286667 106.93910526 20 104 C16.30851541 101.02930738 12.64270487 98.03030811 9 95 C8.13117188 94.28070313 7.26234375 93.56140625 6.3671875 92.8203125 C-5.55204741 82.57778953 -13.22688279 70.72518852 -14.51171875 54.88671875 C-15.421167 35.65370036 -9.46041037 18.06066223 -1 1 C-0.67 0.67 -0.34 0.34 0 0 Z " fill="#37618D" transform="translate(237,77)"/>
<path d="M0 0 C3.19026177 3.19026177 3.79383578 7.70004453 4.96875 11.97070312 C6.28577719 16.47610309 7.87078862 19.39807797 11 23 C11 23.66 11 24.32 11 25 C11.99 25 12.98 25 14 25 C13.125 32.625 13.125 32.625 12 36 C11.74863344 39.07885945 11.76874399 42.16192753 11.75 45.25 C11.729375 46.08402344 11.70875 46.91804688 11.6875 47.77734375 C11.65281529 53.30088323 12.47281677 57.07864319 15 62 C6.46047407 60.68392595 0.22975185 54.93252619 -5.203125 48.5 C-9.58370437 42.40528088 -12.35474956 36.57168593 -12 29 C-7.125 33.625 -7.125 33.625 -6 37 C-3.44829129 38.5838192 -0.92393881 39.37344168 2 40 C1.67 38.68 1.34 37.36 1 36 C0.236875 36.061875 -0.52625 36.12375 -1.3125 36.1875 C-4 36 -4 36 -5.8125 34.8125 C-7.42525784 32.35092224 -7.4334014 30.88934264 -7 28 C-5.625 26.1875 -5.625 26.1875 -4 25 C-3.34 25 -2.68 25 -2 25 C-2.02320313 23.69804687 -2.04640625 22.39609375 -2.0703125 21.0546875 C-2.08907942 19.32813076 -2.10727863 17.60156779 -2.125 15.875 C-2.15013672 14.59109375 -2.15013672 14.59109375 -2.17578125 13.28125 C-2.21306681 8.43412707 -1.89580643 4.55292095 0 0 Z " fill="#982D6C" transform="translate(299,122)"/>
<path d="M0 0 C0.67289062 0.2784375 1.34578125 0.556875 2.0390625 0.84375 C11.24226506 4.96564767 17.9085682 11.77154826 22 21 C22.375 24.625 22.375 24.625 22 27 C20.68 27 19.36 27 18 27 C18 27.99 18 28.98 18 30 C16.35 30.66 14.7 31.32 13 32 C12.68289063 31.2265625 12.36578125 30.453125 12.0390625 29.65625 C7.54600271 19.62754196 1.77089286 13.75017649 -8.4375 9.5625 C-9.95100751 9.02074691 -11.47106675 8.49655263 -13 8 C-13.99 7.67 -14.98 7.34 -16 7 C-27.4499487 6.15339773 -36.31923695 7.54615796 -46 14 C-43.85060288 7.18367986 -38.01455365 3.17826707 -31.890625 -0.14453125 C-21.81390232 -4.51541737 -10.02671009 -4.59722676 0 0 Z " fill="#DD393F" transform="translate(301,80)"/>
<path d="M0 0 C2.97 0 5.94 0 9 0 C9 3.96 9 7.92 9 12 C13.62 12 18.24 12 23 12 C23 14.64 23 17.28 23 20 C18.38 20 13.76 20 9 20 C9 29.57 9 39.14 9 49 C6.03 49 3.06 49 0 49 C0 39.43 0 29.86 0 20 C-5.28 20 -10.56 20 -16 20 C-16 17.36 -16 14.72 -16 12 C-10.72 12 -5.44 12 0 12 C0 8.04 0 4.08 0 0 Z " fill="#5159A3" transform="translate(263,103)"/>
<path d="M0 0 C3.63433982 1.93784135 6.33519709 4.23682708 7.80859375 8.14453125 C8.25953548 10.08462939 8.63493521 12.0419252 9 14 C9.66 14.33 10.32 14.66 11 15 C10.34 15 9.68 15 9 15 C8.95875 16.010625 8.9175 17.02125 8.875 18.0625 C8.2261606 22.81742757 5.41137119 25.7967496 2 29 C-1.4823691 30.74118455 -5.20044946 30.57948084 -9 30 C-13.00535409 27.03952089 -15.29684015 23.66127959 -17 19 C-17.70048807 14.32723202 -17.51425265 10.35845123 -15.3125 6.125 C-11.29838935 0.70052615 -6.81512875 -1.56180034 0 0 Z " fill="#E7333F" transform="translate(304,186)"/>
<path d="M0 0 C0.33 0 0.66 0 1 0 C0.835 1.134375 0.67 2.26875 0.5 3.4375 C-1.65198878 23.92957227 1.20151974 44.05442167 14.14453125 60.76953125 C19.73412272 66.6638364 26.32829993 71.37876941 32.80126953 76.24584961 C49.43974474 88.81122906 49.43974474 88.81122906 52 99 C52.27745632 102.08964071 52.19757487 104.88819586 52 108 C50.20496657 105.30744986 49.60747293 103.82699468 48.8125 100.8125 C44.74124424 88.49943379 31.65423194 81.23770957 21.49804688 74.14355469 C7.05646673 64.02510129 -1.42543793 53.5061886 -5 36 C-6.26820845 23.65437897 -3.87651127 11.68122063 0 0 Z " fill="#497CAE" transform="translate(215,107)"/>
<path d="M0 0 C-1.22216242 3.32221617 -2.58082492 5.97858914 -4.6875 8.8125 C-10.23082969 16.88173115 -15.89934105 28.05589609 -16.31640625 37.88671875 C-16.35830078 38.82451172 -16.40019531 39.76230469 -16.44335938 40.72851562 C-16.48267578 41.70498047 -16.52199219 42.68144531 -16.5625 43.6875 C-16.60568359 44.67556641 -16.64886719 45.66363281 -16.69335938 46.68164062 C-16.79941654 49.12095546 -16.90147714 51.56037113 -17 54 C-19.421875 53.6484375 -19.421875 53.6484375 -22 53 C-23.25 50.625 -23.25 50.625 -24 48 C-24.495 46.515 -24.495 46.515 -25 45 C-25.22635971 41.89982302 -25.18515463 38.79510864 -25.1875 35.6875 C-25.19974609 34.84509766 -25.21199219 34.00269531 -25.22460938 33.13476562 C-25.23592874 28.30894276 -24.74353219 24.56053321 -23 20 C-22.83201531 16.74955291 -22.83201531 16.74955291 -23 14 C-22.34 13.67 -21.68 13.34 -21 13 C-20.67 13.66 -20.34 14.32 -20 15 C-19.401875 14.175 -18.80375 13.35 -18.1875 12.5 C-14.33530555 7.83505932 -6.35404711 0 0 0 Z " fill="#F1C455" transform="translate(335,132)"/>
<path d="M0 0 C0.66 0 1.32 0 2 0 C2 4.29 2 8.58 2 13 C3.32 12.34 4.64 11.68 6 11 C6 11.66 6 12.32 6 13 C7.65 13 9.3 13 11 13 C3.47870126 34.31034642 -19.74387978 47.77224363 -39 57 C-40.16474854 57.56062134 -40.16474854 57.56062134 -41.35302734 58.13256836 C-46.1734745 60.37081811 -50.8062749 61.86682362 -56 63 C-56.33 62.34 -56.66 61.68 -57 61 C-56.29617188 60.731875 -55.59234375 60.46375 -54.8671875 60.1875 C-34.92963089 52.2749449 -12.45568709 39.1367039 -2.96484375 18.97265625 C-0.97475077 12.84123617 -0.53178446 6.39728764 0 0 Z " fill="#D84147" transform="translate(371,138)"/>
<path d="M0 0 C3.19026177 3.19026177 3.79383578 7.70004453 4.96875 11.97070312 C6.28577719 16.47610309 7.87078862 19.39807797 11 23 C11 23.66 11 24.32 11 25 C11.66 25.33 12.32 25.66 13 26 C12.443125 26.61875 11.88625 27.2375 11.3125 27.875 C8.27521218 31.979443 6.18059061 36.39752391 4 41 C2.5 39.625 2.5 39.625 1 38 C1 37.34 1 36.68 1 36 C0.236875 36.061875 -0.52625 36.12375 -1.3125 36.1875 C-4 36 -4 36 -5.8125 34.8125 C-7.42525784 32.35092224 -7.4334014 30.88934264 -7 28 C-5.625 26.1875 -5.625 26.1875 -4 25 C-3.34 25 -2.68 25 -2 25 C-2.02320313 23.69804687 -2.04640625 22.39609375 -2.0703125 21.0546875 C-2.08907942 19.32813076 -2.10727863 17.60156779 -2.125 15.875 C-2.15013672 14.59109375 -2.15013672 14.59109375 -2.17578125 13.28125 C-2.21306681 8.43412707 -1.89580643 4.55292095 0 0 Z " fill="#E38657" transform="translate(299,122)"/>
<path d="M0 0 C4.62 0 9.24 0 14 0 C14 2.31 14 4.62 14 7 C9.38 7 4.76 7 0 7 C0 16.24 0 25.48 0 35 C-2.31 35 -4.62 35 -7 35 C-7 25.76 -7 16.52 -7 7 C-4.525 7.495 -4.525 7.495 -2 8 C-1.855625 7.236875 -1.71125 6.47375 -1.5625 5.6875 C-1 3 -1 3 0 0 Z " fill="#41499A" transform="translate(271,116)"/>
<path d="M0 0 C0.99 0.33 1.98 0.66 3 1 C3.22786458 3.05078125 3.45572917 5.1015625 3.68359375 7.15234375 C3.81886614 9.01140229 3.81886614 9.01140229 5 10 C5.41638909 17.22386659 5.59745162 24.18168951 3 31 C1.8553125 30.4740625 1.8553125 30.4740625 0.6875 29.9375 C-2.04759379 28.67639116 -2.04759379 28.67639116 -5 30 C-5 25.71 -5 21.42 -5 17 C-5.66 17 -6.32 17 -7 17 C-7 13.37 -7 9.74 -7 6 C-6.67 6.66 -6.34 7.32 -6 8 C-5.67 7.01 -5.34 6.02 -5 5 C-3.66666667 4.33333333 -2.33333333 3.66666667 -1 3 C-0.67 2.01 -0.34 1.02 0 0 Z " fill="#E13338" transform="translate(378,121)"/>
<path d="M0 0 C1 2 1 2 0.1015625 5.125 C-0.37558168 6.42229902 -0.86885739 7.71373759 -1.375 9 C-1.77187012 10.01114868 -1.77187012 10.01114868 -2.17675781 11.04272461 C-4.516979 16.5984309 -7.66934511 20.57738539 -12.046875 24.75390625 C-15.36108784 28.56525101 -16 32.02828629 -16 37 C-15.34 37 -14.68 37 -14 37 C-14 37.66 -14 38.32 -14 39 C-14.66 39 -15.32 39 -16 39 C-15.69255859 39.85851562 -15.69255859 39.85851562 -15.37890625 40.734375 C-14.89980546 43.59910136 -15.55411105 44.73474736 -16.9375 47.25 C-17.31777344 47.95640625 -17.69804687 48.6628125 -18.08984375 49.390625 C-18.39019531 49.92171875 -18.69054687 50.4528125 -19 51 C-19.33 51 -19.66 51 -20 51 C-21.03769249 27.07879354 -21.03769249 27.07879354 -15 17 C-14.55398438 16.19691406 -14.10796875 15.39382812 -13.6484375 14.56640625 C-10.06805901 8.6357793 -5.33682642 4.35247844 0 0 Z " fill="#4F9A44" transform="translate(338,136)"/>
<path d="M0 0 C0.33 0 0.66 0 1 0 C0.835 1.134375 0.67 2.26875 0.5 3.4375 C-1.3000714 20.57847843 1.22738857 34.83668799 7 51 C6.01 50.67 5.02 50.34 4 50 C4 49.34 4 48.68 4 48 C3.34 48 2.68 48 2 48 C2.66 50.31 3.32 52.62 4 55 C3.01 55.495 3.01 55.495 2 56 C-6.42566313 36.70458826 -6.69056611 20.16090587 0 0 Z " fill="#5684B1" transform="translate(215,107)"/>
<path d="M0 0 C0.66 0 1.32 0 2 0 C2 4.29 2 8.58 2 13 C3.32 12.34 4.64 11.68 6 11 C6 11.66 6 12.32 6 13 C7.65 13 9.3 13 11 13 C8.49816659 20.08852799 3.91775206 25.45933267 -1 31 C-2.32 30.34 -3.64 29.68 -5 29 C-3.27216128 19.8645123 -3.27216128 19.8645123 -1.9375 15.625 C-0.60458478 10.47106117 -0.33075575 5.30079617 0 0 Z " fill="#DA4146" transform="translate(371,138)"/>
<path d="M0 0 C0.99 0.33 1.98 0.66 3 1 C2.57847656 1.90363281 2.15695312 2.80726563 1.72265625 3.73828125 C1.17480469 4.91777344 0.62695312 6.09726563 0.0625 7.3125 C-0.48277344 8.48425781 -1.02804687 9.65601563 -1.58984375 10.86328125 C-3.20487717 14.45572402 -4.1227835 17.3303533 -4.31640625 21.23046875 C-4.35830078 22.03291016 -4.40019531 22.83535156 -4.44335938 23.66210938 C-4.48267578 24.49548828 -4.52199219 25.32886719 -4.5625 26.1875 C-4.60568359 27.03248047 -4.64886719 27.87746094 -4.69335938 28.74804688 C-4.79931518 30.83184433 -4.9001502 32.91590103 -5 35 C-7.49283399 31.26074902 -7.31914789 28.66637665 -7.4609375 24.27734375 C-7.7647524 21.81771627 -7.7647524 21.81771627 -10.0390625 20.69140625 C-10.68617188 20.46324219 -11.33328125 20.23507813 -12 20 C-11.855625 19.01 -11.71125 18.02 -11.5625 17 C-10.99074821 13.00590535 -10.49180166 9.00467063 -10 5 C-9.34 5 -8.68 5 -8 5 C-8 4.34 -8 3.68 -8 3 C-7.34 3 -6.68 3 -6 3 C-6 2.34 -6 1.68 -6 1 C-4.02 1.66 -2.04 2.32 0 3 C0 2.01 0 1.02 0 0 Z " fill="#FACB39" transform="translate(323,148)"/>
<path d="M0 0 C2.4375 1.625 2.4375 1.625 4 4 C4.60605429 7.63632575 4.47161336 9.28314769 2.4375 12.375 C-0.92058549 14.61372366 -3.04745604 14.57491549 -7 14 C-8.9375 12.4375 -8.9375 12.4375 -10 10 C-10.61818182 4.12727273 -10.61818182 4.12727273 -8.9375 1.0625 C-5.8347167 -0.63902633 -3.46230815 -0.42519574 0 0 Z " fill="#EB8B3F" transform="translate(317,126)"/>
<path d="M0 0 C3 0.5 3 0.5 4.875 2.0625 C6.44271513 5.45921611 6.4548598 7.79614162 6 11.5 C4.3125 14.4375 4.3125 14.4375 2 16.5 C-0.5625 17.0625 -0.5625 17.0625 -3 16.5 C-5.1446305 14.72513338 -5.87365521 13.34460623 -6.28515625 10.59375 C-6.42571841 7.31804055 -6.23014864 5.01144143 -4.875 2 C-3 0.5 -3 0.5 0 0 Z " fill="#FDF0F1" transform="translate(300,192.5)"/>
<path d="M0 0 C2 3.75 2 3.75 2 6 C2.66 6.33 3.32 6.66 4 7 C3.34 7 2.68 7 2 7 C1.95875 8.010625 1.9175 9.02125 1.875 10.0625 C1.2261606 14.81742757 -1.58862881 17.7967496 -5 21 C-8.4366186 22.7183093 -12.2344225 22.38792805 -16 22 C-18.5625 20.625 -18.5625 20.625 -20 19 C-20 18.34 -20 17.68 -20 17 C-17.03 17.99 -14.06 18.98 -11 20 C-11 19.34 -11 18.68 -11 18 C-8.69 18 -6.38 18 -4 18 C-4.66 17.34 -5.32 16.68 -6 16 C-9.59679066 16.32326553 -9.59679066 16.32326553 -13 17 C-13 16.34 -13 15.68 -13 15 C-12.21625 14.731875 -11.4325 14.46375 -10.625 14.1875 C-7.71885077 13.15185568 -7.71885077 13.15185568 -6 10 C-5.75892674 7.71351152 -5.75892674 7.71351152 -5.875 5.3125 C-5.90207031 4.10013672 -5.90207031 4.10013672 -5.9296875 2.86328125 C-5.95289063 2.24839844 -5.97609375 1.63351563 -6 1 C-5.34 1 -4.68 1 -4 1 C-3.67 2.65 -3.34 4.3 -3 6 C-2.34 6 -1.68 6 -1 6 C-0.67 4.02 -0.34 2.04 0 0 Z " fill="#E0313F" transform="translate(311,194)"/>
<path d="M0 0 C3 2 3 2 3.3984375 3.875 C3.39070313 4.57625 3.38296875 5.2775 3.375 6 C3.38273437 6.70125 3.39046875 7.4025 3.3984375 8.125 C3 10 3 10 0 12 C-3.12026907 12.32502803 -5.14747535 12.51151479 -7.875 10.875 C-9.52854531 8.11909116 -9.39365568 6.14924548 -9 3 C-6.78229215 -0.69617975 -4.0271794 -0.41949785 0 0 Z " fill="#388847" transform="translate(348,142)"/>
<path d="M0 0 C1.65 0 3.3 0 5 0 C5 0.66 5 1.32 5 2 C7.97 2.495 7.97 2.495 11 3 C11 4.65 11 6.3 11 8 C9.02 8.33 7.04 8.66 5 9 C5 9.66 5 10.32 5 11 C3.02 11 1.04 11 -1 11 C-1.66 12.32 -2.32 13.64 -3 15 C-4.1484375 12.83203125 -4.1484375 12.83203125 -5 10 C-4.1015625 7.32421875 -4.1015625 7.32421875 -2.625 4.6875 C-2.14289063 3.80449219 -1.66078125 2.92148438 -1.1640625 2.01171875 C-0.77992188 1.34785156 -0.39578125 0.68398437 0 0 Z " fill="#6AAD40" transform="translate(329,158)"/>
<path d="M0 0 C2 3 2 3 2.875 6.375 C4.03355356 10.10811702 5.49017819 12.07187455 8 15 C8 15.66 8 16.32 8 17 C8.66 17.33 9.32 17.66 10 18 C9.443125 18.61875 8.88625 19.2375 8.3125 19.875 C5.27521218 23.979443 3.18059061 28.39752391 1 33 C0.01 32.01 -0.98 31.02 -2 30 C-1.34 28.68 -0.68 27.36 0 26 C0.66 26 1.32 26 2 26 C2 22.7 2 19.4 2 16 C0.35 16 -1.3 16 -3 16 C-2.01 15.67 -1.02 15.34 0 15 C0 10.05 0 5.1 0 0 Z " fill="#F3AE4A" transform="translate(302,130)"/>
<path d="M0 0 C0.33 0 0.66 0 1 0 C1.309375 1.134375 1.61875 2.26875 1.9375 3.4375 C2.62924531 6.78775099 2.62924531 6.78775099 4 8 C8.65796849 8.452835 8.65796849 8.452835 12.875 6.8125 C14.26229035 4.5774211 14.64987213 2.59094622 15 0 C15.33 0 15.66 0 16 0 C16 1.98 16 3.96 16 6 C16.99 6.33 17.98 6.66 19 7 C18.45730469 7.47050781 17.91460937 7.94101563 17.35546875 8.42578125 C16.64003906 9.04839844 15.92460937 9.67101562 15.1875 10.3125 C14.47980469 10.92738281 13.77210938 11.54226562 13.04296875 12.17578125 C11.29863261 13.73334335 9.63221959 15.32658875 8 17 C7.67 16.34 7.34 15.68 7 15 C6.01 15.33 5.02 15.66 4 16 C2.99157547 14.56839732 1.99352109 13.12948547 1 11.6875 C0.443125 10.88699219 -0.11375 10.08648437 -0.6875 9.26171875 C-2 7 -2 7 -2 4 C-1.34 4 -0.68 4 0 4 C0 2.68 0 1.36 0 0 Z " fill="#FEEED5" transform="translate(306,131)"/>
<path d="M0 0 C1.31973289 3.95919868 0.28748162 5.34821401 -1.25 9.1875 C-6.1352004 22.10516237 -7.47096263 35.28151365 -8 49 C-8.33 49 -8.66 49 -9 49 C-9.33 43.39 -9.66 37.78 -10 32 C-10.66 32 -11.32 32 -12 32 C-10.38322536 22.46776617 -7.0788967 7.0788967 0 0 Z " fill="#507395" transform="translate(237,77)"/>
<path d="M0 0 C0.84433594 0.00322266 1.68867188 0.00644531 2.55859375 0.00976562 C3.86763672 0.02233398 3.86763672 0.02233398 5.203125 0.03515625 C6.09128906 0.03966797 6.97945313 0.04417969 7.89453125 0.04882812 C10.08079829 0.06058225 12.26692679 0.07701376 14.453125 0.09765625 C14.453125 1.08765625 14.453125 2.07765625 14.453125 3.09765625 C15.113125 3.09765625 15.773125 3.09765625 16.453125 3.09765625 C16.453125 3.75765625 16.453125 4.41765625 16.453125 5.09765625 C15.133125 5.09765625 13.813125 5.09765625 12.453125 5.09765625 C12.123125 6.08765625 11.793125 7.07765625 11.453125 8.09765625 C6.578125 6.34765625 6.578125 6.34765625 5.453125 4.09765625 C4.793125 4.28328125 4.133125 4.46890625 3.453125 4.66015625 C-0.44017614 5.22792933 -3.66062979 4.69047332 -7.546875 4.09765625 C-7.876875 3.10765625 -8.206875 2.11765625 -8.546875 1.09765625 C-5.6220117 0.25573843 -3.03945844 -0.02053688 0 0 Z " fill="#E13338" transform="translate(339.546875,100.90234375)"/>
<path d="M0 0 C0.99 0.66 1.98 1.32 3 2 C3.375 5.5 3.375 5.5 3 9 C-0.46923881 11.31282587 -1.92205575 11.42478586 -6 11 C-7.875 9.8125 -7.875 9.8125 -9 8 C-9.42822025 5.14519831 -9.40659584 3.65507108 -7.875 1.1875 C-5.15523346 -0.53501881 -3.15413751 -0.32855599 0 0 Z " fill="#993B7C" transform="translate(301,147)"/>
<path d="M0 0 C6.93 0.495 6.93 0.495 14 1 C15.00911458 3.5390625 16.01822917 6.078125 17.02734375 8.6171875 C17.94901262 10.96137667 17.94901262 10.96137667 19 13 C12.06449728 11.96211667 6.39604853 7.97271776 1.9375 2.625 C1.298125 1.75875 0.65875 0.8925 0 0 Z " fill="#863077" transform="translate(295,171)"/>
<path d="M0 0 C0.33 0 0.66 0 1 0 C1.33 3.3 1.66 6.6 2 10 C3.32 10.33 4.64 10.66 6 11 C6.06058594 11.72445312 6.12117188 12.44890625 6.18359375 13.1953125 C6.61483433 18.17116533 7.07047641 23.08680391 8 28 C5.625 27.8125 5.625 27.8125 3 27 C1.75 24.625 1.75 24.625 1 22 C0.67 21.01 0.34 20.02 0 19 C-0.0806622 17.51876453 -0.10761193 16.03417796 -0.09765625 14.55078125 C-0.09443359 13.70322266 -0.09121094 12.85566406 -0.08789062 11.98242188 C-0.07951172 11.10134766 -0.07113281 10.22027344 -0.0625 9.3125 C-0.05798828 8.41982422 -0.05347656 7.52714844 -0.04882812 6.60742188 C-0.03704983 4.40488013 -0.02060164 2.20247401 0 0 Z " fill="#E78540" transform="translate(310,158)"/>
<path d="M0 0 C0.66 0 1.32 0 2 0 C2.33 0.66 2.66 1.32 3 2 C3.99 2.33 4.98 2.66 6 3 C7.5703125 4.890625 7.5703125 4.890625 9.125 7.25 C9.64320313 8.01828125 10.16140625 8.7865625 10.6953125 9.578125 C12.04644403 12.08621346 12.59217235 14.19494153 13 17 C8.10864879 16.04091153 5.08646892 15.02921139 1.93359375 10.86328125 C0.21438251 7.43205213 0.09254254 3.78583104 0 0 Z " fill="#3F78B0" transform="translate(217,155)"/>
<path d="M0 0 C0.99 0.33 1.98 0.66 3 1 C2.57847656 1.90363281 2.15695312 2.80726563 1.72265625 3.73828125 C1.17480469 4.91777344 0.62695312 6.09726563 0.0625 7.3125 C-0.48277344 8.48425781 -1.02804687 9.65601563 -1.58984375 10.86328125 C-3.20487717 14.45572402 -4.1227835 17.3303533 -4.31640625 21.23046875 C-4.35830078 22.03291016 -4.40019531 22.83535156 -4.44335938 23.66210938 C-4.48267578 24.49548828 -4.52199219 25.32886719 -4.5625 26.1875 C-4.60568359 27.03248047 -4.64886719 27.87746094 -4.69335938 28.74804688 C-4.79931518 30.83184433 -4.9001502 32.91590103 -5 35 C-7.4369285 31.34460725 -7.45679512 29.0467667 -7.75 24.6875 C-7.84796875 23.39199219 -7.9459375 22.09648437 -8.046875 20.76171875 C-8.00050612 17.04061614 -7.38221195 14.42894888 -6 11 C-5.34 11 -4.68 11 -4 11 C-4.33 8.36 -4.66 5.72 -5 3 C-4.01 2.67 -3.02 2.34 -2 2 C-1.34 2.33 -0.68 2.66 0 3 C0 2.01 0 1.02 0 0 Z " fill="#DFD376" transform="translate(323,148)"/>
<path d="M0 0 C0.8971875 0.309375 0.8971875 0.309375 1.8125 0.625 C0.8225 0.955 -0.1675 1.285 -1.1875 1.625 C-1.1875 2.285 -1.1875 2.945 -1.1875 3.625 C2.1125 4.285 5.4125 4.945 8.8125 5.625 C8.8125 5.955 8.8125 6.285 8.8125 6.625 C8.13445312 6.65078125 7.45640625 6.6765625 6.7578125 6.703125 C-2.18449848 7.24808578 -9.69476273 9.62984182 -17.1875 14.625 C-15.8166635 10.18720725 -13.91972307 8.22347184 -10.25 5.4375 C-9.37472656 4.76332031 -8.49945313 4.08914062 -7.59765625 3.39453125 C-2.41120507 -0.41334944 -2.41120507 -0.41334944 0 0 Z " fill="#D34F53" transform="translate(272.1875,79.375)"/>
<path d="M0 0 C1.67542976 0.28604898 3.34385343 0.61781233 5 1 C5 1.66 5 2.32 5 3 C1.33937035 4.8041932 -2.3294785 6.59102843 -6 8.375 C-7.54494141 9.13683594 -7.54494141 9.13683594 -9.12109375 9.9140625 C-14.71327078 12.62110361 -19.90026281 14.78298513 -26 16 C-26.33 15.34 -26.66 14.68 -27 14 C-26.29617188 13.731875 -25.59234375 13.46375 -24.8671875 13.1875 C-11.57860839 8.10473894 -11.57860839 8.10473894 0 0 Z " fill="#CF4D52" transform="translate(341,185)"/>
<path d="M0 0 C0.66 0.33 1.32 0.66 2 1 C3.29411765 8.41176471 3.29411765 8.41176471 2 11 C-1.81984796 11.77811718 -4.26840331 12.24386556 -8 11 C-8.33 8.69 -8.66 6.38 -9 4 C-6.36 4 -3.72 4 -1 4 C-0.67 2.68 -0.34 1.36 0 0 Z " fill="#AF2877" transform="translate(304,159)"/>
<path d="M0 0 C2.97 0 5.94 0 9 0 C9 3.96 9 7.92 9 12 C13.62 12 18.24 12 23 12 C23 14.64 23 17.28 23 20 C22.67 20 22.34 20 22 20 C22 17.69 22 15.38 22 13 C16.39 13 10.78 13 5 13 C5.66 9.37 6.32 5.74 7 2 C5.35 2 3.7 2 2 2 C2 4.97 2 7.94 2 11 C1.01 11.495 1.01 11.495 0 12 C0 8.04 0 4.08 0 0 Z " fill="#6166A2" transform="translate(263,103)"/>
<path d="M0 0 C5.39891329 0.83060204 7.895697 4.82343776 11 9 C14.07130481 14.44908917 14.37258689 18.91441421 14 25 C12.20496657 22.30744986 11.60747293 20.82699468 10.8125 17.8125 C8.76408755 11.3836363 4.56247109 6.70831406 -1 3 C-0.67 2.01 -0.34 1.02 0 0 Z " fill="#4578AB" transform="translate(253,190)"/>
<path d="M0 0 C0 3.10551666 -0.5393715 4.35261084 -2 7 C-1.01 7.33 -0.02 7.66 1 8 C-7.78343949 14.88853503 -7.78343949 14.88853503 -13 17 C-13.66 16.67 -14.32 16.34 -15 16 C-13.46518706 12.19331705 -11.13477919 10.1037511 -8.0625 7.4375 C-3.92587532 3.83064366 -3.92587532 3.83064366 0 0 Z " fill="#D14347" transform="translate(359,170)"/>
<path d="M0 0 C0.33 0.66 0.66 1.32 1 2 C0.14453125 4.56640625 0.14453125 4.56640625 -1.1875 7.5625 C-1.61417969 8.55378906 -2.04085938 9.54507813 -2.48046875 10.56640625 C-4 13 -4 13 -6.11328125 13.71484375 C-6.73589844 13.80894531 -7.35851562 13.90304688 -8 14 C-8.33 14.66 -8.66 15.32 -9 16 C-10.32 16 -11.64 16 -13 16 C-12.4521558 11.93839643 -10.34935923 9.82859334 -7.625 6.875 C-6.83351563 6.00617188 -6.04203125 5.13734375 -5.2265625 4.2421875 C-3 2 -3 2 0 0 Z " fill="#2D8549" transform="translate(338,136)"/>
<path d="M0 0 C0.33 0.99 0.66 1.98 1 3 C1.845625 3.433125 2.69125 3.86625 3.5625 4.3125 C4.366875 4.869375 5.17125 5.42625 6 6 C6.3125 9.1875 6.3125 9.1875 6 12 C4.68 12.33 3.36 12.66 2 13 C2 11.02 2 9.04 2 7 C1.34 7 0.68 7 0 7 C-0.391875 6.525625 -0.78375 6.05125 -1.1875 5.5625 C-3.86612359 3.25334174 -6.56076032 3.32445657 -10 3 C-10 3.66 -10 4.32 -10 5 C-11.32 5.33 -12.64 5.66 -14 6 C-9.47222261 0.06705031 -7.48852578 -1.41292939 0 0 Z " fill="#EF2433" transform="translate(305,188)"/>
<path d="M0 0 C2.64356228 1.72080941 4.82858237 3.72001149 7 6 C6.67 6.66 6.34 7.32 6 8 C3.5 6.625 3.5 6.625 1 5 C1 4.34 1 3.68 1 3 C-3.47021497 1.74620624 -3.47021497 1.74620624 -7.765625 2.9765625 C-9.94072757 4.78210881 -11.72703787 6.45407573 -13 9 C-13.66 9 -14.32 9 -15 9 C-15.05447047 10.41623216 -15.09300508 11.83308191 -15.125 13.25 C-15.14820313 14.03890625 -15.17140625 14.8278125 -15.1953125 15.640625 C-15.14601731 18.04101727 -15.14601731 18.04101727 -13.9296875 20.109375 C-13 22 -13 22 -14 25 C-17.0916125 19.97612968 -17.90165207 15.7605549 -17 10 C-15.67526095 6.30355073 -13.74580127 3.64221776 -10.75 1.0625 C-7.06692046 -0.36050801 -3.83591558 -0.93364738 0 0 Z " fill="#DE414E" transform="translate(304,186)"/>
<path d="M0 0 C-1.43308135 3.95906817 -3.33141949 7.28718181 -5.625 10.8125 C-6.57246094 12.27623047 -6.57246094 12.27623047 -7.5390625 13.76953125 C-8.02117187 14.50558594 -8.50328125 15.24164063 -9 16 C-9.33 14.68 -9.66 13.36 -10 12 C-11.32 11.67 -12.64 11.34 -14 11 C-12.58590577 7.60470083 -10.97643772 5.94087183 -8 3.8125 C-6.948125 3.04873047 -6.948125 3.04873047 -5.875 2.26953125 C-2.52307692 0 -2.52307692 0 0 0 Z " fill="#EEA246" transform="translate(335,132)"/>
<path d="M0 0 C0 0.66 0 1.32 0 2 C1.95825873 2.02694851 3.91662226 2.04637218 5.875 2.0625 C6.96554687 2.07410156 8.05609375 2.08570312 9.1796875 2.09765625 C11.95177546 2.19744303 11.95177546 2.19744303 14 1 C14 1.99 14 2.98 14 4 C15.65 4 17.3 4 19 4 C18.67 4.99 18.34 5.98 18 7 C17.21753906 6.67386719 16.43507813 6.34773438 15.62890625 6.01171875 C10.97956605 4.71550873 6.73623966 4.74580208 1.9375 4.8125 C1.05255859 4.81314453 0.16761719 4.81378906 -0.74414062 4.81445312 C-4.94768879 4.84283417 -8.90419243 4.93560094 -13 6 C-13 5.34 -13 4.68 -13 4 C-11.68 4 -10.36 4 -9 4 C-9 3.34 -9 2.68 -9 2 C-3.375 -1.125 -3.375 -1.125 0 0 Z " fill="#D63E47" transform="translate(332,103)"/>
<path d="M0 0 C0.25485425 3.26936494 0.47442831 6.54016741 0.6875 9.8125 C0.76033203 10.74126953 0.83316406 11.67003906 0.90820312 12.62695312 C0.96298828 13.51962891 1.01777344 14.41230469 1.07421875 15.33203125 C1.13182373 16.15421143 1.18942871 16.9763916 1.2487793 17.82348633 C0.94044082 20.52106974 0.07168402 21.32607931 -2 23 C-2 20.36 -2 17.72 -2 15 C-2.33 16.65 -2.66 18.3 -3 20 C-3.33 20 -3.66 20 -4 20 C-4.08069658 17.04112541 -4.14034665 14.0844341 -4.1875 11.125 C-4.21263672 10.28324219 -4.23777344 9.44148438 -4.26367188 8.57421875 C-4.27333984 7.76855469 -4.28300781 6.96289062 -4.29296875 6.1328125 C-4.3086792 5.38918457 -4.32438965 4.64555664 -4.34057617 3.87939453 C-4.22818604 3.25919434 -4.1157959 2.63899414 -4 2 C-1 0 -1 0 0 0 Z " fill="#2F5B89" transform="translate(228,108)"/>
<path d="M0 0 C4.71806167 13.70484581 4.71806167 13.70484581 2 20.5 C1.67 20.995 1.34 21.49 1 22 C0.67 22 0.34 22 0 22 C-0.03738281 21.23816406 -0.07476562 20.47632813 -0.11328125 19.69140625 C-0.53848412 13.01321999 -1.50385324 7.21681834 -4 1 C-2 0 -2 0 0 0 Z " fill="#507193" transform="translate(281,198)"/>
<path d="M0 0 C3 2 3 2 3.73046875 4.05859375 C3.95669922 5.23615234 3.95669922 5.23615234 4.1875 6.4375 C4.34605469 7.21996094 4.50460937 8.00242188 4.66796875 8.80859375 C5 11 5 11 5 14 C7.97 14 10.94 14 14 14 C11.3144406 16.6855594 8.62378672 17.06049974 5 18 C4.76925781 17.40832031 4.53851563 16.81664062 4.30078125 16.20703125 C2.18776069 11.08734113 0.20411055 7.62020631 -4 4 C-3.01 3.34 -2.02 2.68 -1 2 C-0.67 1.34 -0.34 0.68 0 0 Z " fill="#FCE6EB" transform="translate(308,182)"/>
<path d="M0 0 C0.33 0 0.66 0 1 0 C1 1.65 1 3.3 1 5 C-0.32 5 -1.64 5 -3 5 C-3.433125 6.0828125 -3.433125 6.0828125 -3.875 7.1875 C-4.59937878 8.99844695 -5.367412 10.79283643 -6.1875 12.5625 C-7.0768013 15.2304039 -6.96136276 16.40432055 -6 19 C-7.32 19.33 -8.64 19.66 -10 20 C-10.98999746 16.94000785 -11.11047575 15.3240622 -10.0625 12.25 C-7.1981947 7.73654922 -3.76132407 3.79505792 0 0 Z " fill="#59A240" transform="translate(332,153)"/>
<path d="M0 0 C0.66 0 1.32 0 2 0 C4.53883587 5.23634898 4.77641602 10.44869995 3 16 C2.01 16 1.02 16 0 16 C-2.28571429 4.57142857 -2.28571429 4.57142857 0 0 Z " fill="#F26730" transform="translate(299,129)"/>
<path d="M0 0 C0.66 0.33 1.32 0.66 2 1 C2 1.66 2 2.32 2 3 C3.65 3.33 5.3 3.66 7 4 C7 4.66 7 5.32 7 6 C9.64 5.34 12.28 4.68 15 4 C15.33 4.99 15.66 5.98 16 7 C11.25 8.125 11.25 8.125 9 7 C9 7.66 9 8.32 9 9 C5.26512223 8.5020163 3.18762365 8.12508244 0 6 C-0.75 3.4375 -0.75 3.4375 -1 1 C-0.67 0.67 -0.34 0.34 0 0 Z " fill="#EF2434" transform="translate(291,205)"/>
<path d="M0 0 C0.66 0.33 1.32 0.66 2 1 C-0.06312934 5.01767292 -1.90027691 7.05263153 -6 9 C-6.99 9 -7.98 9 -9 9 C-9 9.66 -9 10.32 -9 11 C-9.66 11 -10.32 11 -11 11 C-10.47437173 7.21547645 -9.73485867 4.73485867 -7 2 C-4.4375 1.3125 -4.4375 1.3125 -2 1 C-1.34 0.67 -0.68 0.34 0 0 Z " fill="#429040" transform="translate(332,149)"/>
<path d="M0 0 C2 2 2 2 2 6 C-0.8125 7.125 -0.8125 7.125 -4 8 C-4.99 7.34 -5.98 6.68 -7 6 C-7.1875 3.375 -7.1875 3.375 -7 1 C-4.48718205 -0.25640898 -2.78302919 -0.20872719 0 0 Z " fill="#FCB236" transform="translate(317,129)"/>
<path d="M0 0 C1.54078615 2.98440561 2.86973276 6.01007758 4.125 9.125 C4.47820312 9.99382812 4.83140625 10.86265625 5.1953125 11.7578125 C6 14 6 14 6 16 C5.01 15.67 4.02 15.34 3 15 C3 14.34 3 13.68 3 13 C2.34 13 1.68 13 1 13 C1.66 15.31 2.32 17.62 3 20 C2.34 20.33 1.68 20.66 1 21 C0.30300448 19.54618103 -0.38233866 18.08677047 -1.0625 16.625 C-1.44535156 15.81289062 -1.82820312 15.00078125 -2.22265625 14.1640625 C-2.47917969 13.44992188 -2.73570312 12.73578125 -3 12 C-2.67 11.34 -2.34 10.68 -2 10 C-1.01 10 -0.02 10 1 10 C0.67 9.34 0.34 8.68 0 8 C-0.13415472 5.3276379 -0.04318541 2.67749512 0 0 Z " fill="#5486B5" transform="translate(216,142)"/>
<path d="M0 0 C0.33 0 0.66 0 1 0 C1.17015625 0.61746094 1.3403125 1.23492187 1.515625 1.87109375 C3.22185424 7.8338204 5.33581117 13.40114631 8 19 C7.360625 19.103125 6.72125 19.20625 6.0625 19.3125 C5.0415625 19.6528125 5.0415625 19.6528125 4 20 C3.67 20.99 3.34 21.98 3 23 C2.34 22.34 1.68 21.68 1 21 C1 20.01 1 19.02 1 18 C1.66 17.67 2.32 17.34 3 17 C2.45481673 14.63753918 1.79687894 12.46232661 0.9375 10.1875 C-0.10153814 6.65477031 -0.14651912 3.66297793 0 0 Z " fill="#436A93" transform="translate(231,137)"/>
<path d="M0 0 C1.875 0.6875 1.875 0.6875 2.875 1.6875 C2.91563832 3.35367115 2.917721 5.02138095 2.875 6.6875 C0.565 7.0175 -1.745 7.3475 -4.125 7.6875 C-4.455 5.7075 -4.785 3.7275 -5.125 1.6875 C-2.125 -0.3125 -2.125 -0.3125 0 0 Z " fill="#BD2B85" transform="translate(299.125,148.3125)"/>
<path d="M0 0 C3.68006822 3.38168431 5.9785845 6.42521756 8 11 C7.34 11 6.68 11 6 11 C5.67 11.99 5.34 12.98 5 14 C2.25445276 11.62884556 1.04882814 9.46920075 0 6 C-0.125 2.6875 -0.125 2.6875 0 0 Z " fill="#783274" transform="translate(287,151)"/>
<path d="M0 0 C0 0.99 0 1.98 0 3 C-1.65 3 -3.3 3 -5 3 C-5.33 4.65 -5.66 6.3 -6 8 C-4.02 8.66 -2.04 9.32 0 10 C0 10.66 0 11.32 0 12 C-5.4 12.36 -5.4 12.36 -7.875 10.875 C-9.52854531 8.11909116 -9.39365568 6.14924548 -9 3 C-6.77089201 -0.71517998 -4.03410755 -0.2689405 0 0 Z " fill="#297544" transform="translate(348,142)"/>
<path d="M0 0 C1.32 0 2.64 0 4 0 C7.875 6.75 7.875 6.75 9 9 C4.4923533 8.46968862 1.58045212 6.74778884 -2 4 C-2 3.34 -2 2.68 -2 2 C-1.34 2 -0.68 2 0 2 C0 1.34 0 0.68 0 0 Z " fill="#5E2E70" transform="translate(305,175)"/>
<path d="M0 0 C-0.61277612 2.96175123 -1.25372522 4.38058783 -3 7 C-5.625 7.1875 -5.625 7.1875 -8 7 C-8 5.02 -8 3.04 -8 1 C-5.29120665 -0.35439668 -2.99066732 -0.06501451 0 0 Z " fill="#79BB3E" transform="translate(337,162)"/>
<path d="M0 0 C0.33 0 0.66 0 1 0 C1.33 2.64 1.66 5.28 2 8 C2.66 7.67 3.32 7.34 4 7 C3.67 10.96 3.34 14.92 3 19 C2.34 19 1.68 19 1 19 C0.67 19.99 0.34 20.98 0 22 C0 14.74 0 7.48 0 0 Z " fill="#456D96" transform="translate(223,115)"/>
<path d="M0 0 C0.66 0.33 1.32 0.66 2 1 C1.95875 1.78375 1.9175 2.5675 1.875 3.375 C1.71271266 6.16116119 1.71271266 6.16116119 4 8 C5.2375 8.1546875 5.2375 8.1546875 6.5 8.3125 C7.325 8.539375 8.15 8.76625 9 9 C10.3125 11.5625 10.3125 11.5625 11 14 C6.1334614 13.58286812 4.20769467 11.54534674 1 8 C0.401875 7.401875 -0.19625 6.80375 -0.8125 6.1875 C-1.204375 5.795625 -1.59625 5.40375 -2 5 C-1.34 3.35 -0.68 1.7 0 0 Z " fill="#F4D4E9" transform="translate(291,149)"/>
<path d="M0 0 C2.475 0.99 2.475 0.99 5 2 C5 2.33 5 2.66 5 3 C2.69 3.33 0.38 3.66 -2 4 C-2.33 6.31 -2.66 8.62 -3 11 C-3.66 11 -4.32 11 -5 11 C-5 10.01 -5 9.02 -5 8 C-5.66 8 -6.32 8 -7 8 C-6.34 5.69 -5.68 3.38 -5 1 C-3.35 1.33 -1.7 1.66 0 2 C0 1.34 0 0.68 0 0 Z " fill="#E3F7EB" transform="translate(342,139)"/>
<path d="M0 0 C0.33 0 0.66 0 1 0 C1.06058594 0.72445312 1.12117188 1.44890625 1.18359375 2.1953125 C1.61483433 7.17116533 2.07047641 12.08680391 3 17 C0.625 16.8125 0.625 16.8125 -2 16 C-3.375 13.625 -3.375 13.625 -4 11 C-3.67 10.01 -3.34 9.02 -3 8 C-3 8.66 -3 9.32 -3 10 C-2.34 9.67 -1.68 9.34 -1 9 C-0.53348793 6.87423218 -0.53348793 6.87423218 -0.375 4.4375 C-0.30023438 3.61121094 -0.22546875 2.78492188 -0.1484375 1.93359375 C-0.09945313 1.29550781 -0.05046875 0.65742188 0 0 Z " fill="#DA7A5B" transform="translate(315,169)"/>
<path d="M0 0 C1.79133978 -0.05391993 3.58313899 -0.09275571 5.375 -0.125 C6.37273437 -0.14820313 7.37046875 -0.17140625 8.3984375 -0.1953125 C11 0 11 0 13 2 C11.23050388 2.50471197 9.45934777 3.00360685 7.6875 3.5 C6.20830078 3.91765625 6.20830078 3.91765625 4.69921875 4.34375 C2 5 2 5 -1 5 C-0.67 3.35 -0.34 1.7 0 0 Z " fill="#478C53" transform="translate(346,159)"/>
<path d="M0 0 C0.33 0.99 0.66 1.98 1 3 C0.34 3 -0.32 3 -1 3 C-0.67 3.99 -0.34 4.98 0 6 C-1.98 6.33 -3.96 6.66 -6 7 C-6 5.35 -6 3.7 -6 2 C-7.32 1.67 -8.64 1.34 -10 1 C-6.56484998 0.37542727 -3.50935186 0 0 0 Z " fill="#5DA54D" transform="translate(346,159)"/>
<path d="M0 0 C0.33 0 0.66 0 1 0 C1.84349132 7.47743661 2.39900513 13.80298461 0 21 C-0.33 21 -0.66 21 -1 21 C-1.0269501 18.06243881 -1.04681474 15.12512445 -1.0625 12.1875 C-1.07087891 11.35412109 -1.07925781 10.52074219 -1.08789062 9.66210938 C-1.09111328 8.85966797 -1.09433594 8.05722656 -1.09765625 7.23046875 C-1.10289307 6.49207764 -1.10812988 5.75368652 -1.11352539 4.99291992 C-1 3 -1 3 0 0 Z " fill="#428F45" transform="translate(319,166)"/>
<path d="M0 0 C-0.33 1.32 -0.66 2.64 -1 4 C-1.639375 4.12375 -2.27875 4.2475 -2.9375 4.375 C-3.9584375 4.684375 -3.9584375 4.684375 -5 5 C-5.33 5.66 -5.66 6.32 -6 7 C-7.32 7 -8.64 7 -10 7 C-9.42655063 4.13275314 -9.1385485 3.1385485 -7 1 C-4.49940039 0.19335496 -2.66053211 0 0 0 Z " fill="#31853E" transform="translate(335,145)"/>
<path d="M0 0 C1.35877888 4.07633664 0.17330445 5.94884748 -1.3125 9.9375 C-1.76238281 11.16339844 -2.21226562 12.38929687 -2.67578125 13.65234375 C-3.6803388 16.19188893 -4.71627669 18.59527886 -6 21 C-7.62800871 15.2886252 -6.14336018 12.14090904 -3.5625 7.125 C-3.22412109 6.43664062 -2.88574219 5.74828125 -2.53710938 5.0390625 C-1.70547407 3.35236555 -0.85463124 1.67516248 0 0 Z " fill="#7A91A7" transform="translate(237,77)"/>
<path d="M0 0 C0.33 0 0.66 0 1 0 C0.52060632 4.71403788 0.03165952 8.66579301 -2 13 C-3.20628008 10.66785852 -4.1654738 8.50357861 -5 6 C-2.625 2.8125 -2.625 2.8125 0 0 Z " fill="#783958" transform="translate(312,147)"/>
<path d="M0 0 C0 3.10551666 -0.5393715 4.35261084 -2 7 C-1.01 7.33 -0.02 7.66 1 8 C0.01 8.66 -0.98 9.32 -2 10 C-2 9.34 -2 8.68 -2 8 C-2.99 8 -3.98 8 -5 8 C-5 8.99 -5 9.98 -5 11 C-6.32 10.34 -7.64 9.68 -9 9 C-6.03 6.03 -3.06 3.06 0 0 Z " fill="#D74D52" transform="translate(359,170)"/>
<path d="M0 0 C1.65 1.32 3.3 2.64 5 4 C4.01 4.33 3.02 4.66 2 5 C2 6.98 2 8.96 2 11 C1.01 11.495 1.01 11.495 0 12 C-0.99 10.02 -1.98 8.04 -3 6 C-2.505 5.38125 -2.01 4.7625 -1.5 4.125 C0.19222773 2.16119096 0.19222773 2.16119096 0 0 Z " fill="#963880" transform="translate(294,159)"/>
<path d="M0 0 C1.32 0.66 2.64 1.32 4 2 C2.35 5.3 0.7 8.6 -1 12 C-1.99 11.01 -2.98 10.02 -4 9 C-3.34 7.68 -2.68 6.36 -2 5 C-1.34 5 -0.68 5 0 5 C0 3.35 0 1.7 0 0 Z " fill="#F0A15F" transform="translate(304,151)"/>
<path d="M0 0 C0.99 0.33 1.98 0.66 3 1 C2.67 3.31 2.34 5.62 2 8 C0.02 8.33 -1.96 8.66 -4 9 C-4 7.35 -4 5.7 -4 4 C-3.34 4 -2.68 4 -2 4 C-2 3.34 -2 2.68 -2 2 C-1.34 2 -0.68 2 0 2 C0 1.34 0 0.68 0 0 Z " fill="#FCE234" transform="translate(317,149)"/>
<path d="M0 0 C0.33 0 0.66 0 1 0 C1.06058594 0.60328125 1.12117187 1.2065625 1.18359375 1.828125 C1.26738281 2.62734375 1.35117188 3.4265625 1.4375 4.25 C1.55931641 5.43335938 1.55931641 5.43335938 1.68359375 6.640625 C1.97634993 8.82364639 2.42064419 10.8773182 3 13 C-0.875 12.125 -0.875 12.125 -2 11 C-2.23961213 6.76685233 -2.32488647 3.63263511 0 0 Z " fill="#3271AF" transform="translate(215,141)"/>
<path d="M0 0 C0 0.99 0 1.98 0 3 C0.99 3.66 1.98 4.32 3 5 C-1 7 -5 9 -9 11 C-7.59928507 5.70841026 -4.14512755 3.22521956 0 0 Z " fill="#CD5C61" transform="translate(264,83)"/>
<path d="M0 0 C-1.35468295 4.87685861 -3.71675909 6.48592381 -8 9 C-8.33 8.34 -8.66 7.68 -9 7 C-7.65340159 4.16505598 -6.60748753 2.38658298 -3.9375 0.6875 C-2 0 -2 0 0 0 Z " fill="#E98043" transform="translate(335,132)"/>
<path d="M0 0 C2 1 2 1 2 1 Z M-3 1 C-2.01 1 -1.02 1 0 1 C0 2.98 0 4.96 0 7 C-1.98 7.33 -3.96 7.66 -6 8 C-4.125 3.25 -4.125 3.25 -3 1 Z " fill="#DD383C" transform="translate(363,169)"/>
<path d="M0 0 C0.33 0.99 0.66 1.98 1 3 C2.65 3 4.3 3 6 3 C5.67 3.99 5.34 4.98 5 6 C3.78957031 5.52433594 3.78957031 5.52433594 2.5546875 5.0390625 C-1.64700961 3.81087411 -5.5235065 3.55200991 -9.875 3.375 C-10.65875 3.33632812 -11.4425 3.29765625 -12.25 3.2578125 C-14.16631367 3.16433378 -16.08312319 3.08111505 -18 3 C-18 2.67 -18 2.34 -18 2 C-16.17662109 1.90912109 -16.17662109 1.90912109 -14.31640625 1.81640625 C-12.73175772 1.73201668 -11.14712298 1.6473679 -9.5625 1.5625 C-8.76005859 1.52318359 -7.95761719 1.48386719 -7.13085938 1.44335938 C-3.24760439 1.5945704 -3.24760439 1.5945704 0 0 Z " fill="#D35F63" transform="translate(345,104)"/>
<path d="M0 0 C2.64 0 5.28 0 8 0 C8 1.32 8 2.64 8 4 C6.35 4.33 4.7 4.66 3 5 C2.01 3.35 1.02 1.7 0 0 Z " fill="#CC2A7B" transform="translate(297,164)"/>
<path d="M0 0 C2.10483837 3.15725756 2.30888017 4.39850283 2.5625 8.0625 C2.77633446 11.66760043 2.77633446 11.66760043 4 15 C1.69 15.33 -0.62 15.66 -3 16 C-2.01 15.67 -1.02 15.34 0 15 C0 10.05 0 5.1 0 0 Z " fill="#EF9044" transform="translate(302,130)"/>
<path d="M0 0 C0.33 0 0.66 0 1 0 C1 2.64 1 5.28 1 8 C1.66 8 2.32 8 3 8 C3.33 8.66 3.66 9.32 4 10 C6.52733235 10.65555119 6.52733235 10.65555119 9 11 C9 11.33 9 11.66 9 12 C2.59903382 12.48309179 2.59903382 12.48309179 0.0625 10.4375 C-1.36150232 7.17067114 -1.26588635 4.52299415 -1 1 C-0.67 0.67 -0.34 0.34 0 0 Z " fill="#E58A4C" transform="translate(308,128)"/>
<path d="M0 0 C0.99 0 1.98 0 3 0 C5.3992233 4.64849515 5.19957409 8.91086074 5 14 C2.99006295 10.98509443 2.27376659 8.7850073 1.375 5.3125 C1.11460937 4.31863281 0.85421875 3.32476562 0.5859375 2.30078125 C0.39257812 1.54152344 0.19921875 0.78226563 0 0 Z " fill="#5F84AA" transform="translate(262,201)"/>
<path d="M0 0 C0.33 0.66 0.66 1.32 1 2 C1.66 2 2.32 2 3 2 C3 3.32 3 4.64 3 6 C2.34 6 1.68 6 1 6 C0.67 6.99 0.34 7.98 0 9 C-1.37562854 7.71034824 -2.70766393 6.37310707 -4 5 C-4 4.34 -4 3.68 -4 3 C-3.01 2.34 -2.02 1.68 -1 1 C-0.67 0.67 -0.34 0.34 0 0 Z " fill="#F9BB37" transform="translate(322,142)"/>
<path d="M0 0 C2.31 0 4.62 0 7 0 C6.8125 1.875 6.8125 1.875 6 4 C3.4375 5.25 3.4375 5.25 1 6 C0.67 4.02 0.34 2.04 0 0 Z " fill="#FEF9F0" transform="translate(309,141)"/>
<path d="M0 0 C-2.96346786 2.47186455 -5.54041689 3.66248361 -9.25 4.6875 C-10.14203125 4.93886719 -11.0340625 5.19023437 -11.953125 5.44921875 C-12.62859375 5.63097656 -13.3040625 5.81273437 -14 6 C-14.33 5.34 -14.66 4.68 -15 4 C-13.44219668 3.32243118 -11.87849904 2.65840543 -10.3125 2 C-9.44238281 1.62875 -8.57226562 1.2575 -7.67578125 0.875 C-4.9427998 -0.01870488 -2.85299066 -0.16449676 0 0 Z " fill="#C2656C" transform="translate(329,195)"/>
<path d="M0 0 C0.66 0 1.32 0 2 0 C2.33 1.65 2.66 3.3 3 5 C5.97 5 8.94 5 12 5 C9.3144406 7.6855594 6.62378672 8.06049974 3 9 C2.01 6.03 1.02 3.06 0 0 Z " fill="#FDDFDD" transform="translate(310,191)"/>
<path d="M0 0 C0.66 0 1.32 0 2 0 C2 0.66 2 1.32 2 2 C2.99 2 3.98 2 5 2 C4.625 4.4375 4.625 4.4375 4 7 C3.01 7.495 3.01 7.495 2 8 C1.67 7.34 1.34 6.68 1 6 C0.34 6 -0.32 6 -1 6 C-0.67 4.02 -0.34 2.04 0 0 Z " fill="#D9383B" transform="translate(367,161)"/>
<path d="M0 0 C1.65 0 3.3 0 5 0 C5.33 1.65 5.66 3.3 6 5 C4.35 5 2.7 5 1 5 C0.67 3.35 0.34 1.7 0 0 Z " fill="#5CA644" transform="translate(342,145)"/>
<path d="M0 0 C0.33 0.66 0.66 1.32 1 2 C4.02934491 2.65772428 4.02934491 2.65772428 7 3 C7 4.65 7 6.3 7 8 C5.35 8.33 3.7 8.66 2 9 C2.66 7.35 3.32 5.7 4 4 C2.35 3.67 0.7 3.34 -1 3 C-0.67 2.01 -0.34 1.02 0 0 Z " fill="#70B748" transform="translate(333,158)"/>
<path d="M0 0 C0.66 0 1.32 0 2 0 C2.33 0.66 2.66 1.32 3 2 C3.99 2.33 4.98 2.66 6 3 C5.34 4.65 4.68 6.3 4 8 C2 6.8125 2 6.8125 0 5 C-0.25 2.3125 -0.25 2.3125 0 0 Z " fill="#3375B4" transform="translate(217,155)"/>
<path d="M0 0 C0 3.65351863 -0.88942301 5.06026776 -3 8 C-5.1875 9.3125 -5.1875 9.3125 -7 10 C-5.6062718 5.56541027 -3.39417765 3.12621626 0 0 Z " fill="#E3F8E6" transform="translate(327,174)"/>
<path d="M0 0 C2.31 1.65 4.62 3.3 7 5 C6.01 6.32 5.02 7.64 4 9 C3.01 8.67 2.02 8.34 1 8 C1.66 7.67 2.32 7.34 3 7 C3 6.01 3 5.02 3 4 C2.34 4 1.68 4 1 4 C0.67 2.68 0.34 1.36 0 0 Z " fill="#446A94" transform="translate(257,174)"/>
<path d="M0 0 C0.33 0 0.66 0 1 0 C1.309375 1.11375 1.61875 2.2275 1.9375 3.375 C2.82326483 6.7945155 2.82326483 6.7945155 4 9 C2.68 9.33 1.36 9.66 0 10 C-2 7 -2 7 -2 4 C-1.34 4 -0.68 4 0 4 C0 2.68 0 1.36 0 0 Z " fill="#FEE3C3" transform="translate(306,131)"/>
<path d="M0 0 C0.33 1.65 0.66 3.3 1 5 C0.34 4.67 -0.32 4.34 -1 4 C-1 3.01 -1 2.02 -1 1 C-2.32 1 -3.64 1 -5 1 C-5 1.66 -5 2.32 -5 3 C-5.66 3 -6.32 3 -7 3 C-7.33 3.66 -7.66 4.32 -8 5 C-8.33 3.68 -8.66 2.36 -9 1 C-3.375 -1.125 -3.375 -1.125 0 0 Z " fill="#793070" transform="translate(310,174)"/>
<path d="M0 0 C0.66 0 1.32 0 2 0 C1.85892253 1.45880109 1.71197585 2.91703551 1.5625 4.375 C1.48128906 5.18710938 1.40007812 5.99921875 1.31640625 6.8359375 C1 9 1 9 0 11 C-0.66 10.67 -1.32 10.34 -2 10 C-1.34 6.7 -0.68 3.4 0 0 Z " fill="#3F648E" transform="translate(229,94)"/>
<path d="M0 0 C0.66 0 1.32 0 2 0 C2 3.96 2 7.92 2 12 C0.35 12.66 -1.3 13.32 -3 14 C-2.505 13.360625 -2.01 12.72125 -1.5 12.0625 C0.50950277 7.95976517 0.26385672 4.48556418 0 0 Z " fill="#E34F59" transform="translate(305,195)"/>
<path d="M0 0 C3.00617269 3.00617269 2.59585316 5.82381598 3 10 C2.67 9.01 2.34 8.02 2 7 C1.34 7 0.68 7 0 7 C-0.33 7.66 -0.66 8.32 -1 9 C-1.125 2.25 -1.125 2.25 0 0 Z " fill="#E16F47" transform="translate(299,122)"/>
<path d="M0 0 C-1.95649397 0.83764268 -3.91525556 1.66999059 -5.875 2.5 C-7.51082031 3.19609375 -7.51082031 3.19609375 -9.1796875 3.90625 C-12 5 -12 5 -14 5 C-14 4.01 -14 3.02 -14 2 C-12.42085985 1.46658816 -10.83645613 0.94874237 -9.25 0.4375 C-8.36828125 0.14746094 -7.4865625 -0.14257812 -6.578125 -0.44140625 C-3.92165684 -1.01697435 -2.52968894 -0.89248371 0 0 Z " fill="#FED7D5" transform="translate(337,100)"/>
<path d="M0 0 C2 4 2 4 2 6 C2.66 6.33 3.32 6.66 4 7 C3.34 7 2.68 7 2 7 C1.67 9.31 1.34 11.62 1 14 C0.67 14 0.34 14 0 14 C0 9.38 0 4.76 0 0 Z " fill="#D3454E" transform="translate(311,194)"/>
<path d="M0 0 C0.66 0.99 1.32 1.98 2 3 C-1.4019487 5.09350689 -4.05272412 5.17942163 -8 5 C-5.44008376 2.98863724 -2.95409701 1.37154504 0 0 Z " fill="#CB565C" transform="translate(334,190)"/>
<path d="M0 0 C6.625 -0.25 6.625 -0.25 10 2 C9.67 2.66 9.34 3.32 9 4 C8.67 3.67 8.34 3.34 8 3 C3.85723125 2.75266863 3.85723125 2.75266863 0 4 C0 2.68 0 1.36 0 0 Z " fill="#DA3944" transform="translate(295,191)"/>
<path d="M0 0 C1.32 0.99 2.64 1.98 4 3 C3.67 4.65 3.34 6.3 3 8 C1.68 7.34 0.36 6.68 -1 6 C-1.042721 4.33388095 -1.04063832 2.66617115 -1 1 C-0.67 0.67 -0.34 0.34 0 0 Z " fill="#F9A939" transform="translate(312,162)"/>
<path d="M0 0 C4.875 4.625 4.875 4.625 6 8 C4.02 7.34 2.04 6.68 0 6 C0 4.02 0 2.04 0 0 Z " fill="#7B4B83" transform="translate(287,151)"/>
<path d="M0 0 C0.66 0.99 1.32 1.98 2 3 C-0.31 5.64 -2.62 8.28 -5 11 C-5.33 10.34 -5.66 9.68 -6 9 C-4.02 6.03 -2.04 3.06 0 0 Z " fill="#E6E6BD" transform="translate(332,137)"/>
<path d="M0 0 C0.33 0 0.66 0 1 0 C0.67 2.97 0.34 5.94 0 9 C-0.99 9 -1.98 9 -3 9 C-2.44271087 5.65626525 -1.64826111 2.96687001 0 0 Z " fill="#F7832A" transform="translate(302,136)"/>
<path d="M0 0 C1.37562854 1.28965176 2.70766393 2.62689293 4 4 C4 4.66 4 5.32 4 6 C3.01 6.33 2.02 6.66 1 7 C0.01 5.35 -0.98 3.7 -2 2 C-1.34 2 -0.68 2 0 2 C0 1.34 0 0.68 0 0 Z " fill="#4E80B2" transform="translate(260,195)"/>
<path d="M0 0 C2.4375 0.75 2.4375 0.75 5 2 C5.8125 4.125 5.8125 4.125 6 6 C3 5 3 5 0 3 C0 2.01 0 1.02 0 0 Z " fill="#3774AE" transform="translate(240,179)"/>
<path d="M0 0 C0.99 0.33 1.98 0.66 3 1 C-0.465 3.97 -0.465 3.97 -4 7 C-4.33 6.01 -4.66 5.02 -5 4 C-4.34 4 -3.68 4 -3 4 C-2.67 3.01 -2.34 2.02 -2 1 C-1.34 0.67 -0.68 0.34 0 0 Z " fill="#62A456" transform="translate(327,171)"/>
<path d="M0 0 C1.65 1.65 3.3 3.3 5 5 C4.34 6.32 3.68 7.64 3 9 C2.01 8.67 1.02 8.34 0 8 C0.20625 7.38125 0.4125 6.7625 0.625 6.125 C0.74875 5.42375 0.8725 4.7225 1 4 C0.34 3.34 -0.32 2.68 -1 2 C-0.67 1.34 -0.34 0.68 0 0 Z " fill="#436A94" transform="translate(248,166)"/>
<path d="M0 0 C0.88336837 2.4667645 1.1312406 3.63859372 0.22265625 6.140625 C-0.16019531 6.83671875 -0.54304688 7.5328125 -0.9375 8.25 C-1.31777344 8.95640625 -1.69804687 9.6628125 -2.08984375 10.390625 C-2.39019531 10.92171875 -2.69054687 11.4528125 -3 12 C-3.88336837 9.5332355 -4.1312406 8.36140628 -3.22265625 5.859375 C-2.83980469 5.16328125 -2.45695312 4.4671875 -2.0625 3.75 C-1.68222656 3.04359375 -1.30195313 2.3371875 -0.91015625 1.609375 C-0.60980469 1.07828125 -0.30945313 0.5471875 0 0 Z " fill="#FEE3E3" transform="translate(369,150)"/>
<path d="M0 0 C0.33 0.66 0.66 1.32 1 2 C0.0625 4.625 0.0625 4.625 -1 7 C-2.65 6.67 -4.3 6.34 -6 6 C-4 4 -2 2 0 0 Z " fill="#418860" transform="translate(338,136)"/>
<path d="M0 0 C5.53846154 -0.36923077 5.53846154 -0.36923077 7.875 1.5 C8.24625 1.995 8.6175 2.49 9 3 C8.67 3.99 8.34 4.98 8 6 C6.66402348 5.19185349 5.331275 4.37836819 4 3.5625 C3.2575 3.11003906 2.515 2.65757813 1.75 2.19140625 C1.1725 1.79824219 0.595 1.40507813 0 1 C0 0.67 0 0.34 0 0 Z " fill="#D75059" transform="translate(294,89)"/>
<path d="M0 0 C1.32 0.33 2.64 0.66 4 1 C3.01 1.33 2.02 1.66 1 2 C1 2.66 1 3.32 1 4 C1.99 4.66 2.98 5.32 4 6 C2.02 6 0.04 6 -2 6 C-2 3 -2 3 0 0 Z " fill="#DD494E" transform="translate(270,79)"/>
<path d="M0 0 C1.32 0 2.64 0 4 0 C3.34 1.32 2.68 2.64 2 4 C0.68 4 -0.64 4 -2 4 C-1.34 2.68 -0.68 1.36 0 0 Z " fill="#86C13D" transform="translate(333,163)"/>
<path d="M0 0 C0.144375 0.639375 0.28875 1.27875 0.4375 1.9375 C0.81007181 3.97545146 0.81007181 3.97545146 2 5 C2.04063832 6.66617115 2.042721 8.33388095 2 10 C1.34 10 0.68 10 0 10 C0 9.01 0 8.02 0 7 C-0.66 7 -1.32 7 -2 7 C-1.34 4.69 -0.68 2.38 0 0 Z " fill="#D6F2E3" transform="translate(337,140)"/>
<path d="M0 0 C0 0.66 0 1.32 0 2 C-0.66 2 -1.32 2 -2 2 C-2 2.66 -2 3.32 -2 4 C-3.65 4 -5.3 4 -7 4 C-7.33 3.01 -7.66 2.02 -8 1 C-2.25 0 -2.25 0 0 0 Z " fill="#F5862D" transform="translate(319,135)"/>
<path d="M0 0 C0.99 0.66 1.98 1.32 3 2 C2.67 3.32 2.34 4.64 2 6 C0.68 5.67 -0.64 5.34 -2 5 C-1.34 3.35 -0.68 1.7 0 0 Z " fill="#3C76AE" transform="translate(235,174)"/>
<path d="M0 0 C2.475 0.495 2.475 0.495 5 1 C5 1.99 5 2.98 5 4 C3.35 4 1.7 4 0 4 C0 2.68 0 1.36 0 0 Z " fill="#E4297E" transform="translate(296,150)"/>
<path d="M0 0 C0.33 0 0.66 0 1 0 C1.33 2.97 1.66 5.94 2 9 C1.01 9.33 0.02 9.66 -1 10 C-0.67 6.7 -0.34 3.4 0 0 Z " fill="#3172B0" transform="translate(212,128)"/>
<path d="M0 0 C1.32 0.66 2.64 1.32 4 2 C4 2.99 4 3.98 4 5 C2.35 4.67 0.7 4.34 -1 4 C-0.67 2.68 -0.34 1.36 0 0 Z " fill="#2F5C87" transform="translate(266,183)"/>
<path d="M0 0 C1.32 0.33 2.64 0.66 4 1 C3.67 2.65 3.34 4.3 3 6 C2.34 6 1.68 6 1 6 C0.67 4.02 0.34 2.04 0 0 Z " fill="#F57432" transform="translate(311,173)"/>
<path d="M0 0 C0.66 0.33 1.32 0.66 2 1 C2 2.98 2 4.96 2 7 C1.67 6.34 1.34 5.68 1 5 C-0.98 5 -2.96 5 -5 5 C-3.68 4.67 -2.36 4.34 -1 4 C-0.67 2.68 -0.34 1.36 0 0 Z " fill="#B53772" transform="translate(304,159)"/>
<path d="M0 0 C0.66 0.66 1.32 1.32 2 2 C1.625 4.625 1.625 4.625 1 7 C0.01 6.01 -0.98 5.02 -2 4 C-1.34 2.68 -0.68 1.36 0 0 Z " fill="#E6945D" transform="translate(302,156)"/>
<path d="M0 0 C2.97 0.495 2.97 0.495 6 1 C6.33 2.65 6.66 4.3 7 6 C5.83054208 5.19152271 4.66449539 4.37810888 3.5 3.5625 C2.8503125 3.11003906 2.200625 2.65757813 1.53125 2.19140625 C1.0259375 1.79824219 0.520625 1.40507813 0 1 C0 0.67 0 0.34 0 0 Z " fill="#D25158" transform="translate(355,112)"/>
<path d="M0 0 C0 0.99 0 1.98 0 3 C-2.64 3.66 -5.28 4.32 -8 5 C-8 4.34 -8 3.68 -8 3 C-6.68 3 -5.36 3 -4 3 C-4 2.34 -4 1.68 -4 1 C-2 0 -2 0 0 0 Z " fill="#CB484B" transform="translate(327,104)"/>

  </svg>
</svg>