<svg xmlns="http://www.w3.org/2000/svg" viewBox="0 0 500 500"><g id="freepik--background-complete--inject-122"><rect y="382.4" width="500" height="0.25" style="fill:#ebebeb"></rect><rect x="416.78" y="398.49" width="33.12" height="0.25" style="fill:#ebebeb"></rect><rect x="322.53" y="401.21" width="8.69" height="0.25" style="fill:#ebebeb"></rect><rect x="396.59" y="389.21" width="19.19" height="0.25" style="fill:#ebebeb"></rect><rect x="52.46" y="390.89" width="43.19" height="0.25" style="fill:#ebebeb"></rect><rect x="104.56" y="390.89" width="6.33" height="0.25" style="fill:#ebebeb"></rect><rect x="131.47" y="395.11" width="93.68" height="0.25" style="fill:#ebebeb"></rect><path d="M237,337.8H43.91a5.71,5.71,0,0,1-5.7-5.71V60.66A5.71,5.71,0,0,1,43.91,55H237a5.71,5.71,0,0,1,5.71,5.71V332.09A5.71,5.71,0,0,1,237,337.8ZM43.91,55.2a5.46,5.46,0,0,0-5.45,5.46V332.09a5.46,5.46,0,0,0,5.45,5.46H237a5.47,5.47,0,0,0,5.46-5.46V60.66A5.47,5.47,0,0,0,237,55.2Z" style="fill:#ebebeb"></path><path d="M453.31,337.8H260.21a5.72,5.72,0,0,1-5.71-5.71V60.66A5.72,5.72,0,0,1,260.21,55h193.1A5.71,5.71,0,0,1,459,60.66V332.09A5.71,5.71,0,0,1,453.31,337.8ZM260.21,55.2a5.47,5.47,0,0,0-5.46,5.46V332.09a5.47,5.47,0,0,0,5.46,5.46h193.1a5.47,5.47,0,0,0,5.46-5.46V60.66a5.47,5.47,0,0,0-5.46-5.46Z" style="fill:#ebebeb"></path><rect x="351.84" y="91.68" width="76.5" height="289.54" style="fill:#ebebeb"></rect><rect x="250.32" y="203.2" width="279.54" height="66.5" transform="translate(626.53 -153.64) rotate(90)" style="fill:#f5f5f5"></rect><rect x="388.37" y="92.45" width="3.44" height="287.99" style="fill:#ebebeb"></rect><rect x="354.57" y="126.9" width="71.04" height="3.44" style="fill:#ebebeb"></rect><rect x="354.57" y="162.84" width="71.04" height="3.44" style="fill:#ebebeb"></rect><rect x="354.57" y="198.78" width="71.04" height="3.44" style="fill:#ebebeb"></rect><rect x="354.57" y="234.72" width="71.04" height="3.44" style="fill:#ebebeb"></rect><rect x="354.57" y="270.67" width="71.04" height="3.44" style="fill:#ebebeb"></rect><rect x="354.57" y="306.61" width="71.04" height="3.44" style="fill:#ebebeb"></rect><rect x="354.57" y="342.55" width="71.04" height="3.44" style="fill:#ebebeb"></rect><rect x="71.66" y="91.68" width="76.5" height="289.54" style="fill:#ebebeb"></rect><rect x="-29.86" y="203.2" width="279.54" height="66.5" transform="translate(346.36 126.53) rotate(90)" style="fill:#f5f5f5"></rect><rect x="108.19" y="92.45" width="3.44" height="287.99" style="fill:#ebebeb"></rect><rect x="74.39" y="126.9" width="71.04" height="3.44" style="fill:#ebebeb"></rect><rect x="74.39" y="162.84" width="71.04" height="3.44" style="fill:#ebebeb"></rect><rect x="74.39" y="198.78" width="71.04" height="3.44" style="fill:#ebebeb"></rect><rect x="74.39" y="234.72" width="71.04" height="3.44" style="fill:#ebebeb"></rect><rect x="74.39" y="270.67" width="71.04" height="3.44" style="fill:#ebebeb"></rect><rect x="74.39" y="306.61" width="71.04" height="3.44" style="fill:#ebebeb"></rect><rect x="74.39" y="342.55" width="71.04" height="3.44" style="fill:#ebebeb"></rect></g><g id="freepik--Shadow--inject-122"><ellipse id="freepik--path--inject-122" cx="250" cy="416.24" rx="193.89" ry="11.32" style="fill:#f5f5f5"></ellipse></g><g id="freepik--Clock--inject-122"><circle cx="250" cy="102.81" r="23.55" style="fill:#e0e0e0"></circle><circle cx="250" cy="102.81" r="20.03" style="fill:#f0f0f0"></circle><polyline points="249.06 116.55 249.06 102.55 239.78 107.8" style="fill:#f0f0f0"></polyline><path d="M249.06,117.55a1,1,0,0,1-1-1V104.27l-7.79,4.4a1,1,0,0,1-1.36-.37,1,1,0,0,1,.37-1.37l9.28-5.25a1,1,0,0,1,1,0,1,1,0,0,1,.5.86v14A1,1,0,0,1,249.06,117.55Z" style="fill:#e0e0e0"></path></g><g id="freepik--Firewood--inject-122"><path d="M75.3,404.47c0-.58,18.45-53.11,23.32-57l7,4.43-7.32,52.72Z" style="fill:#407BFF"></path><polygon points="93.36 365.82 103.64 361.11 122.52 404.97 94.48 404.67 93.36 365.82" style="fill:#407BFF"></polygon><polygon points="93.36 365.82 103.64 361.11 122.52 404.97 94.48 404.67 93.36 365.82" style="fill:#fafafa;opacity:0.2"></polygon><polygon points="88 336.29 90.74 349.73 91.09 351.46 94.89 370.19 94.9 370.2 95.38 372.49 98.92 389.89 98.92 389.91 100.11 395.79 100.48 397.59 99.37 398.9 98.52 399.91 94.48 404.67 90.33 404.48 89.2 404.41 87.84 404.34 86.67 404.29 83.17 404.12 77.65 370.56 76.46 363.38 72.83 341.3 72.46 339.05 72.08 336.74 76.73 336.61 77.84 336.57 84.6 336.39 85.73 336.36 88 336.29" style="fill:#407BFF"></polygon><polygon points="88 336.29 90.74 349.73 91.09 351.46 94.89 370.19 94.9 370.2 95.38 372.49 98.92 389.89 98.92 389.91 100.11 395.79 100.48 397.59 99.37 398.9 98.52 399.91 94.48 404.67 90.33 404.48 89.2 404.41 87.84 404.34 86.67 404.29 83.17 404.12 77.65 370.56 76.46 363.38 72.83 341.3 72.46 339.05 72.08 336.74 76.73 336.61 77.84 336.57 84.6 336.39 85.73 336.36 88 336.29" style="opacity:0.2"></polygon><g style="opacity:0.2"><path d="M78.72,341.28a.78.78,0,0,0,0,.21l0,.19a243.61,243.61,0,0,1,4.58,24.54c.23,1.71.48,3.7.57,5.69,0,1.31,0,2.64,0,3.92,0,.66,0,1.32,0,2,0,9.1,1.89,18.31,3.89,26.52l-1.17,0c-2-8.19-3.83-17.37-3.85-26.48,0-.65,0-1.33,0-2,0-1.26,0-2.57,0-3.86-.09-1.93-.33-3.89-.56-5.58a246.55,246.55,0,0,0-4.55-24.43l0-.19c-.11-.46-.22-.94-.32-1.41Z"></path></g><g style="opacity:0.2"><path d="M97.72,394.73a43.44,43.44,0,0,1,1.65,4.17l-.85,1a40.15,40.15,0,0,0-1.83-4.72c-2-4.47-4.2-9.5-7.82-13.22-.93,5.57-.13,11.28.66,16.82l.8,5.68-1.13-.06L88.42,399c-.81-5.69-1.72-12.14-.45-18.22a.55.55,0,0,1,.36-.42.57.57,0,0,1,.56.12C93.13,384.35,95.57,389.87,97.72,394.73Z"></path></g><g style="opacity:0.2"><path d="M85.44,339.19a28.15,28.15,0,0,0,0,3.9c.22,3.17.29,6,.35,8.74.15,7.25.28,13.5,3.72,21.35A88.44,88.44,0,0,0,94,381.34c1.68,2.79,3.48,5.78,4.89,8.55v0l1.2,5.88H100c-.79-3.62-4.06-9.08-7-13.9a79.83,79.83,0,0,1-4.61-8.27c-3.53-8.06-3.67-14.42-3.82-21.78-.07-2.72-.12-5.54-.35-8.68a21.26,21.26,0,0,1,0-2.64Z"></path></g><g style="opacity:0.2"><path d="M90.74,349.73l.35,1.73c-.07.14-.14.27-.22.4a11.42,11.42,0,0,0-1.54,3.58c-.36,2.05.51,4.25,1.2,6A61.45,61.45,0,0,0,93,367.12a21.57,21.57,0,0,0,1.91,3.07h0l.48,2.29A20,20,0,0,1,92,367.63a60.57,60.57,0,0,1-2.5-5.77c-.74-1.89-1.67-4.25-1.26-6.61a12.2,12.2,0,0,1,1.67-3.94C90.21,350.77,90.49,350.25,90.74,349.73Z"></path></g><g style="opacity:0.2"><path d="M77.43,348.14a9.85,9.85,0,0,1,.67,2.45,10,10,0,0,1-.26,2.9l-.11.65a39.28,39.28,0,0,0-.15,9.07c0,.9.1,1.79.13,2.69a38.67,38.67,0,0,1-.06,4.66l-1.19-7.18v-.11a40.4,40.4,0,0,1,.17-9.32l.11-.67A9.2,9.2,0,0,0,77,350.7a8.76,8.76,0,0,0-.6-2.17,30,30,0,0,0-3.56-7.23l-.36-2.25C74.89,341.68,76.29,345.09,77.43,348.14Z"></path></g><polygon points="72.07 336.74 81.76 343.37 88.01 336.29 72.07 336.74" style="fill:#fafafa;opacity:0.2"></polygon><polygon points="133.02 344.12 127.99 356.88 127.34 358.52 120.31 376.29 120.31 376.31 119.46 378.49 112.94 395 112.93 395.01 110.72 400.6 110.05 402.31 108.41 402.8 107.14 403.18 101.16 404.97 97.79 402.54 96.87 401.87 95.77 401.08 94.82 400.4 91.98 398.34 105.66 367.2 108.58 360.54 117.57 340.04 118.49 337.96 119.43 335.81 123.4 338.24 124.35 338.82 130.12 342.35 131.08 342.94 133.02 344.12" style="fill:#407BFF"></polygon><g style="opacity:0.2"><path d="M122.52,343.24a.84.84,0,0,0-.08.2l-.07.18a242.81,242.81,0,0,1-9.54,23.07c-.74,1.56-1.61,3.36-2.63,5.07-.67,1.13-1.41,2.24-2.13,3.3-.37.55-.74,1.1-1.09,1.66-5,7.63-8.41,16.38-11.21,24.36l-1-.68c2.8-8,6.26-16.65,11.22-24.3.35-.54.73-1.1,1.1-1.66.71-1.06,1.44-2.14,2.1-3.25,1-1.67,1.84-3.45,2.57-5a241.7,241.7,0,0,0,9.51-23l.07-.19c.15-.45.32-.91.49-1.35Z"></path></g><g style="opacity:0.2"><path d="M109.29,398.4a40.29,40.29,0,0,1-.88,4.4l-1.27.38a40.2,40.2,0,0,0,1-5c.79-4.82,1.66-10.24.65-15.34-3.81,4.17-6.25,9.39-8.61,14.46l-2.43,5.2-.92-.67,2.33-5c2.43-5.21,5.18-11.11,9.55-15.52a.6.6,0,0,1,.54-.16.58.58,0,0,1,.4.42C111.1,387.2,110.14,393.16,109.29,398.4Z"></path></g><g style="opacity:0.2"><path d="M129.3,345.15a28.71,28.71,0,0,0-2.15,3.26c-1.54,2.79-3,5.19-4.48,7.52-3.82,6.15-7.12,11.47-8.52,19.93a85.27,85.27,0,0,0-.64,9.31c-.11,3.25-.24,6.74-.57,9.83h0l-2.21,5.59-.07,0c1.32-3.47,1.55-9.82,1.75-15.44a83.64,83.64,0,0,1,.65-9.44c1.43-8.68,4.79-14.09,8.67-20.34,1.44-2.32,2.92-4.72,4.45-7.47a22.87,22.87,0,0,1,1.4-2.24Z"></path></g><g style="opacity:0.2"><path d="M128,356.88l-.65,1.64-.4.22a11.18,11.18,0,0,0-3.25,2.16c-1.42,1.52-1.89,3.83-2.27,5.69a61.41,61.41,0,0,0-1,6.09,21.15,21.15,0,0,0-.08,3.61h0l-.85,2.19a20.4,20.4,0,0,1-.19-5.92,61.66,61.66,0,0,1,1-6.2c.42-2,.92-4.48,2.56-6.23a12.24,12.24,0,0,1,3.54-2.4C127,357.46,127.5,357.18,128,356.88Z"></path></g><g style="opacity:0.2"><path d="M117.69,348.29a9.58,9.58,0,0,1-.77,2.41,10,10,0,0,1-1.8,2.3l-.45.48A40.14,40.14,0,0,0,109.6,361c-.44.78-.89,1.55-1.35,2.32a36.5,36.5,0,0,1-2.6,3.88l2.93-6.66,0-.1a40.34,40.34,0,0,1,5.23-7.72l.46-.5a9.52,9.52,0,0,0,1.61-2,9,9,0,0,0,.68-2.15,30,30,0,0,0,1-8l.92-2.08C119.09,341.49,118.41,345.11,117.69,348.29Z"></path></g><polygon points="119.43 335.81 123.93 346.65 133.03 344.13 119.43 335.81" style="fill:#fafafa;opacity:0.2"></polygon><rect x="100.16" y="357.55" width="2" height="57.84" style="fill:#263238"></rect><path d="M134,415.39h-2V358.55H70.29v56.84h-2V357.55a1,1,0,0,1,1-1H133a1,1,0,0,1,1,1Z" style="fill:#263238"></path><rect x="69.29" y="403.98" width="63.74" height="2" style="fill:#263238"></rect><rect x="69.29" y="371.16" width="63.74" height="1" style="fill:#263238"></rect><rect x="69.29" y="389.08" width="63.74" height="1" style="fill:#263238"></rect><rect x="117.03" y="357.55" width="1" height="47.42" style="fill:#263238"></rect><rect x="84.28" y="357.55" width="1" height="47.42" style="fill:#263238"></rect></g><g id="freepik--Fireplace--inject-122"><rect x="220.54" y="157.59" width="58.92" height="75.26" style="fill:#263238"></rect><rect x="215.37" y="168.76" width="69.26" height="52.92" transform="translate(445.22 -54.78) rotate(90)" style="fill:#fff;opacity:0.2"></rect><rect x="216.37" y="169.76" width="67.26" height="50.92" transform="translate(445.22 -54.78) rotate(90)" style="fill:#fff;opacity:0.7000000000000001"></rect><path d="M242,174.66l-1.08,1.1v1.39h-.56v-5.3H241v3.2l3.11-3.2h.64l-2.29,2.4,2.45,2.9h-.67Z" style="fill:#263238"></path><path d="M249.52,176.67v.48h-3.75v-5.3h3.64v.49h-3.07v1.88h2.73v.48h-2.73v2Z" style="fill:#263238"></path><path d="M254.58,176.67v.48h-3.74v-5.3h3.63v.49H251.4v1.88h2.74v.48H251.4v2Z" style="fill:#263238"></path><path d="M260.05,173.67c0,1.13-.82,1.81-2.17,1.81h-1.42v1.67h-.56v-5.3h2C259.23,171.85,260.05,172.53,260.05,173.67Zm-.56,0c0-.85-.56-1.33-1.62-1.33h-1.41V175h1.41C258.93,175,259.49,174.5,259.49,173.67Z" style="fill:#263238"></path><path d="M271.7,186.82l-.05-.08h-.06c-.09,0-.14.08-.21.22s-.2.45-.41.88-.45.88-.71,1.31a11.65,11.65,0,0,1-.79,1.16,1.6,1.6,0,0,1-.49.45s-.05-.09,0-.3a6.1,6.1,0,0,1,.19-.67,8.28,8.28,0,0,1,.32-.84c.14-.3.28-.58.43-.86.33-.75.64-1.47.91-2.17a3.1,3.1,0,0,0,.28-1.66c0-.21-.17-.34-.46-.39a1.33,1.33,0,0,0-.69.29,6.32,6.32,0,0,0-1,.84c-.34.34-.69.74-1.07,1.19l-.76.9s0-.06,0-.09c0-.23.07-.46.1-.69a3.3,3.3,0,0,0,0-.63c0-.23-.11-.36-.25-.39l-.14,0a1.25,1.25,0,0,0-.71.34,12.05,12.05,0,0,0-1.09,1l-.34.36a5.77,5.77,0,0,0-1.15-.53,6.18,6.18,0,0,0-2-.32,8.85,8.85,0,0,0-1.23.1,13.28,13.28,0,0,0-4,1.33,20.52,20.52,0,0,0-4.51,3.18,19,19,0,0,0-1.44,1.58c-.48.58-.94,1.19-1.36,1.8s-.83,1.24-1.18,1.83-.69,1.17-1,1.67-.45.77-.67,1.12l-.19.28c.09-.27.2-.6.34-1,.26-.75.58-1.64,1-2.65s.8-2.11,1.26-3.28.92-2.32,1.39-3.46l1.4-2.53c.43-.79.8-1.49,1.1-2.1a13.66,13.66,0,0,0,.9-2c.13-.47.1-.76-.12-.9a.51.51,0,0,0-.17,0H253a1.35,1.35,0,0,0-.52.67l-.74,1.53-.08.25c-.26.54-.57,1.25-.92,2.11s-.71,1.79-1.11,2.77c-.62,1.07-1.32,2.19-2.08,3.32s-1.57,2.27-2.43,3.37a36.64,36.64,0,0,1-2.7,3.09,21.45,21.45,0,0,1-2.1,1.89l0-.06a9.33,9.33,0,0,0,1.47-2.47,8.72,8.72,0,0,0,.56-2.19,6.72,6.72,0,0,0,0-1.8l-.2-1.19a2.62,2.62,0,0,0-.09-.56,3.62,3.62,0,0,1-.12-.52,3,3,0,0,0-1.73-1.9,3.39,3.39,0,0,0-1.35-.26,5.92,5.92,0,0,0-.71.05,5.27,5.27,0,0,0-.82-1.53c-.23-.45-.39-.77-.5-1a.56.56,0,0,0-.53-.33h0a.37.37,0,0,0-.23.21.41.41,0,0,0,.08.35,3,3,0,0,0,.57.67.51.51,0,0,1,.15.14.34.34,0,0,0,.16.12c.16.25.31.5.44.74a2.81,2.81,0,0,1,.29.66,14,14,0,0,0-2.89,1,16.28,16.28,0,0,0-2.85,1.85,22,22,0,0,0-2.53,2.36,24,24,0,0,0-2,2.55,12,12,0,0,0-1.3,2.4,4.64,4.64,0,0,0-.53,2.57,1.8,1.8,0,0,0,.66,1.15,2,2,0,0,0,1.21.34l.35,0A8,8,0,0,0,230,203a12.3,12.3,0,0,0,2.38-1.3,21.33,21.33,0,0,0,2.41-1.94,12.21,12.21,0,0,0,2.69-3.85,10.61,10.61,0,0,0,1-4.43,5.53,5.53,0,0,0-.17-1.81c.21,0,.41,0,.6,0a2.92,2.92,0,0,1,1.22.24,2.68,2.68,0,0,1,1.47,1.64,11.42,11.42,0,0,1,.22,1.28,11.49,11.49,0,0,1-.59,2.68,13.14,13.14,0,0,1-1.59,3.15,16.85,16.85,0,0,1-2.76,3.13,15.45,15.45,0,0,1-4,2.59c-.52.24-.61.34-.6.44l.08.12h.09a2.33,2.33,0,0,0,.56-.12,20.37,20.37,0,0,0,3.07-1.25,14.83,14.83,0,0,0,2.72-1.78,18.57,18.57,0,0,0,3-2.26,33.6,33.6,0,0,0,2.78-2.92c.87-1,1.72-2.15,2.52-3.3.56-.8,1.1-1.6,1.61-2.39-.33.8-.64,1.6-1,2.41-.45,1.16-.84,2.21-1.19,3.15s-.62,1.73-.82,2.35c-.31,1-.29,1-.24,1.16l.1.07.09,0c.17,0,.36-.14.59-.44a18.07,18.07,0,0,0,1-1.63c.27-.51.59-1.07.95-1.67s.75-1.19,1.18-1.82.87-1.21,1.33-1.78a13,13,0,0,1,1.42-1.51,21,21,0,0,1,4.23-3,12.61,12.61,0,0,1,3.81-1.33,9.73,9.73,0,0,1,1.39-.11,6.86,6.86,0,0,1,1.38.15.34.34,0,0,0-.08.09c-.17.32-.36.73-.59,1.26l-.72,1.67c-.25.6-.51,1.2-.76,1.81l-.47,1.11c-.06.08-.11.18-.17.26a7.73,7.73,0,0,1-.73,1,1.93,1.93,0,0,1-.28.28,1.27,1.27,0,0,1,.2-.52c.18-.35.36-.75.55-1.19a6.27,6.27,0,0,0,.42-1.4,1.54,1.54,0,0,0-.19-1.22,1.57,1.57,0,0,0-.5-.51c-.1,0-.23-.1-.39-.15a5.16,5.16,0,0,0,.35-1,.7.7,0,0,0,0-.58.42.42,0,0,0-.33-.2.83.83,0,0,0-.78.79,1.4,1.4,0,0,0,.18,1c-.11.35-.31.88-.59,1.55-.17.39-.31.73-.44,1.05a.79.79,0,0,0,0,.09l-.69,1.38a12.54,12.54,0,0,1-.7,1.23,10,10,0,0,1-.64.92c-.23.27-.35.31-.44.31h0a.19.19,0,0,1-.14-.05c-.05-.06-.09-.2,0-.54a9.7,9.7,0,0,1,.52-1.74c.27-.69.59-1.42.94-2.15s.65-1.37.9-1.92a.24.24,0,0,0-.17-.31.41.41,0,0,0-.16,0,1.2,1.2,0,0,0-.24,0,1.89,1.89,0,0,0-.45.19,1.13,1.13,0,0,0-.36.36c-.24.52-.49,1.1-.77,1.74a16.13,16.13,0,0,0-.68,1.83,24.1,24.1,0,0,1-2.22,3.45c-.41.45-.64.54-.77.54a.21.21,0,0,1-.17-.08,1.71,1.71,0,0,1-.09-1.25,8,8,0,0,1,.69-2,15.18,15.18,0,0,1,1.23-2.09,6.6,6.6,0,0,1,1.53-1.61l.38-.12a1.85,1.85,0,0,0,.28-.09l.12-.07v-.06c0-.1-.09-.15-.13-.18a.41.41,0,0,0-.23-.06H255a5.83,5.83,0,0,0-1.92,1.08,6.68,6.68,0,0,0-1.37,1.64,8.24,8.24,0,0,0-.85,2,6.38,6.38,0,0,0-.24,2.07,3.36,3.36,0,0,0,.26.86.57.57,0,0,0,.56.39,1,1,0,0,0,.29-.05,2.78,2.78,0,0,0,1.23-1.13c.37-.51.73-1.06,1.08-1.64a2.05,2.05,0,0,0,.08.95c.15.41.38.61.68.61a1.57,1.57,0,0,0,1.12-.64,8.24,8.24,0,0,0,.94-1.35,11.58,11.58,0,0,0,.65-1.33l.1-.15.28-.62c.12-.26.24-.55.38-.87l.4-1c.12-.29.24-.54.35-.76a2.1,2.1,0,0,1,.31.33,1,1,0,0,1,.09,1,6.43,6.43,0,0,1-.31.71,10.25,10.25,0,0,0-.41,1c-.13.33-.24.65-.34,1a1.68,1.68,0,0,0-.08.83c.06.36.24.44.38.44l.15,0a1.36,1.36,0,0,0,.54-.28,3.65,3.65,0,0,0,.53-.52c0,.23.15.29.24.29h.05a1.09,1.09,0,0,0,.47-.35,2.83,2.83,0,0,0,.48-.76,6.1,6.1,0,0,0,.33-.64l1-2.3a11,11,0,0,1,1.74-2.28c.21-.22.39-.41.59-.6a4,4,0,0,1,.77.64c.06.06.11.15.17.22s-.1.29-.15.46l-.56,1.54-.45,1.17c-.25.67-.21.89-.15,1a.28.28,0,0,0,.24.12c.23,0,.43-.2.63-.63.28-.64.56-1.29.82-1.95a6.37,6.37,0,0,0,.23-.61c0,.09.08.16.1.24a4.73,4.73,0,0,1,.13,2,6.87,6.87,0,0,1-.82,2.33,10.24,10.24,0,0,1-2,2.47,13.31,13.31,0,0,1-2.94,2.17,16.1,16.1,0,0,1-3.09,1.27,26.26,26.26,0,0,1-3.29.71c-1.12.16-2.31.3-3.55.43s-2.36.27-3.57.44a31,31,0,0,0-3.75.74c-.54.14-1.06.29-1.56.47s-1,.36-1.43.56a12.68,12.68,0,0,0-4.33,2.72,10.31,10.31,0,0,0-3.15,4.63,7.21,7.21,0,0,0-.29,3.75,7.31,7.31,0,0,0,1.58,3.29,6.11,6.11,0,0,0,4.82,2.21l.55,0a9.4,9.4,0,0,0,1.77-.17,12.06,12.06,0,0,0,2.11-.58,8.33,8.33,0,0,0,2.94-1.73s.1-.15,0-.36l-.1,0h0a.24.24,0,0,0-.16.07,5.94,5.94,0,0,1-1.22.9,10.18,10.18,0,0,1-1.69.8,11.18,11.18,0,0,1-2,.55,9.46,9.46,0,0,1-1.68.15h-.46a6.11,6.11,0,0,1-4.53-2,.88.88,0,0,0-.12-.2,6.83,6.83,0,0,1-.49-3.84,11.46,11.46,0,0,1,1.53-4.28,14.85,14.85,0,0,1,3.36-3.89A14.08,14.08,0,0,1,244,202.7a30.85,30.85,0,0,1,3.6-.71c1.16-.16,2.3-.3,3.44-.41s2.32-.27,3.46-.43a21.24,21.24,0,0,0,3.37-.71,17.74,17.74,0,0,0,3.24-1.31,13.57,13.57,0,0,0,3-2.23,9.92,9.92,0,0,0,2.09-2.58,7.66,7.66,0,0,0,.86-2.48,4.78,4.78,0,0,0-.16-2.21c-.08-.23-.19-.44-.29-.66.09-.26.18-.53.25-.78.59-.75,1.14-1.42,1.66-2s1-1.07,1.39-1.48a3.51,3.51,0,0,1-.26,1.54l-.75,2.17a14.62,14.62,0,0,0-.53,1.9.88.88,0,0,0,.08.7c.07.09.18.13.39.13h0a1.54,1.54,0,0,0,.89-.55,6.68,6.68,0,0,0,.84-1.12,11.58,11.58,0,0,0,.68-1.3c.2-.43.33-.76.41-1A.59.59,0,0,0,271.7,186.82Zm-8.6,2.09.43-.95a4.52,4.52,0,0,0,.19-.5.41.41,0,0,0,0-.39.18.18,0,0,0-.05-.07,4.46,4.46,0,0,1,.74.32l-.61.7Zm2.79-1a4.88,4.88,0,0,0-.77-.66l.94-.95c.11-.1.2-.16.26-.21s0,0,0,.2a3.8,3.8,0,0,1-.22,1.06c-.05.19-.13.41-.19.61ZM252.42,183c.1-.23.21-.44.31-.65l.33-.64c0,.07,0,.16-.06.28a12,12,0,0,1-.83,1.84c-.24.43-.51.93-.79,1.49v0c.24-.58.48-1.11.71-1.57ZM229.1,202.75l-.56.24a4.94,4.94,0,0,1-.94.11,1.75,1.75,0,0,1-1-.26c-.67-.48-.66-1.55,0-3.21a12.45,12.45,0,0,1,1.26-2.35,20.94,20.94,0,0,1,2-2.49,23.76,23.76,0,0,1,2.48-2.3,15.49,15.49,0,0,1,2.75-1.81l.65-.31c.2-.09.4-.18.62-.26a7.12,7.12,0,0,1,1.55-.42,1.79,1.79,0,0,1,.09.35,3.65,3.65,0,0,1,.06.49,9.76,9.76,0,0,1-1.11,3.79,21.81,21.81,0,0,1-2.27,3.47,23.6,23.6,0,0,1-2.7,2.83,22.38,22.38,0,0,1-2.4,1.88A3.44,3.44,0,0,1,229.1,202.75Z" style="fill:#263238"></path><polygon points="205.36 214.59 205.13 209.86 200.07 209.86 199.84 214.59 197.32 214.59 195.65 232.86 209.56 232.86 207.88 214.59 205.36 214.59" style="fill:#263238"></polygon><path d="M204.68,187c2.91.24.27,8.46-2.14,8.12S200.65,186.62,204.68,187Z" style="fill:#407BFF"></path><path d="M202.28,198.08c-.65,2.07-5.28-1.06-4.65-2.75S203.18,195.22,202.28,198.08Z" style="fill:#407BFF"></path><path d="M200.15,205.11c1.1,1.88-4.33,3.21-5.16,1.61S198.63,202.52,200.15,205.11Z" style="fill:#407BFF"></path><path d="M205.17,197.51c1.84-1.16,3.33,4.23,1.76,5.11S202.63,199.11,205.17,197.51Z" style="fill:#407BFF"></path><path d="M209.75,206.69c.57,2.1-5,2-5.4.21S209,203.8,209.75,206.69Z" style="fill:#407BFF"></path><path d="M209.56,199.89c-1.72-1,1.18-6.44,3.88-4.89S212.59,201.71,209.56,199.89Z" style="fill:#407BFF"></path><path d="M197.73,200.81c1.66-1.77-2.88-7.2-5-4.89S195.79,202.87,197.73,200.81Z" style="fill:#407BFF"></path><path d="M202.6,214.07a.5.5,0,0,1-.5-.48c0-.1-.54-9.56-7.2-14.89a.5.5,0,0,1-.08-.7.52.52,0,0,1,.71-.08c7,5.62,7.55,15.22,7.57,15.62a.5.5,0,0,1-.48.52Z" style="fill:#263238"></path><path d="M202.49,212.94a.51.51,0,0,1-.5-.45c-.06-.56-1.34-13.72.89-21.92a.5.5,0,0,1,1,.26c-2.18,8-.88,21.42-.87,21.56a.49.49,0,0,1-.44.54Z" style="fill:#263238"></path><path d="M202.72,212.46h0a.5.5,0,0,1-.46-.54c0-.31.76-7.52,9.18-14.8a.49.49,0,0,1,.7,0,.51.51,0,0,1,0,.71c-8.09,7-8.82,14.06-8.83,14.13A.49.49,0,0,1,202.72,212.46Z" style="fill:#263238"></path><polygon points="205.36 214.59 205.13 209.86 200.07 209.86 199.84 214.59 197.32 214.59 195.65 232.86 209.56 232.86 207.88 214.59 205.36 214.59" style="fill:#fff;opacity:0.2"></polygon><path d="M175.3,222s1.4-9.66-1.67-16.57-1.66-10.87,1-11,3,9.29,3,9.29-1.18-12.07,3.17-13.32,0,14.31,0,14.31.91-6.17,3.55-4.73.14,7.43-2.36,11a27.51,27.51,0,0,0-3.33,6s2.8-5.05,4.51-3.71-4.51,9.38-4.51,9.38Z" style="fill:#407BFF"></path><path d="M175.3,222s1.4-9.66-1.67-16.57-1.66-10.87,1-11,3,9.29,3,9.29-1.18-12.07,3.17-13.32,0,14.31,0,14.31.91-6.17,3.55-4.73.14,7.43-2.36,11a27.51,27.51,0,0,0-3.33,6s2.8-5.05,4.51-3.71-4.51,9.38-4.51,9.38Z" style="opacity:0.2"></path><path d="M174.64,223.13A8.09,8.09,0,0,0,171,216c-4.09-2.64-6.46-6.33-4-7.12s4.35,3.2,4.35,3.2-4-8.53-3.29-11.87,4.61-1.09,4.88,9.3c0,0-.4-7.81,2.63-6.66S175,214,175,214s1.51-4.17,3.72-2.41-2.93,4.79-2.8,11.51Z" style="fill:#407BFF"></path><rect x="168.75" y="219.9" width="15.65" height="12.96" style="fill:#263238"></rect><rect x="164.16" y="237.44" width="171.68" height="166.29" style="fill:#263238"></rect><rect x="164.16" y="237.44" width="171.68" height="166.29" style="fill:#fafafa;opacity:0.7000000000000001"></rect><rect x="166.21" y="275.54" width="12.54" height="11.34" style="fill:#fafafa;opacity:0.2"></rect><rect x="180.3" y="275.54" width="26.64" height="11.34" style="fill:#fafafa;opacity:0.2"></rect><rect x="208.49" y="275.54" width="26.64" height="11.34" style="fill:#fafafa;opacity:0.2"></rect><rect x="236.68" y="275.54" width="26.64" height="11.34" style="fill:#fafafa;opacity:0.2"></rect><rect x="264.87" y="275.54" width="26.64" height="11.34" style="fill:#fafafa;opacity:0.2"></rect><rect x="293.06" y="275.54" width="26.64" height="11.34" style="fill:#fafafa;opacity:0.2"></rect><rect x="321.25" y="275.54" width="12.54" height="11.34" style="fill:#fafafa;opacity:0.2"></rect><rect x="166.21" y="287.89" width="26.64" height="11.34" style="fill:#fafafa;opacity:0.2"></rect><rect x="194.4" y="287.89" width="26.64" height="11.34" style="fill:#fafafa;opacity:0.2"></rect><rect x="222.59" y="287.89" width="26.64" height="11.34" style="fill:#fafafa;opacity:0.2"></rect><rect x="250.78" y="287.89" width="26.64" height="11.34" style="fill:#fafafa;opacity:0.2"></rect><rect x="278.96" y="287.89" width="26.64" height="11.34" style="fill:#fafafa;opacity:0.2"></rect><rect x="307.15" y="287.89" width="26.64" height="11.34" style="fill:#fafafa;opacity:0.2"></rect><rect x="166.21" y="300.23" width="12.54" height="11.34" style="fill:#fafafa;opacity:0.2"></rect><rect x="180.3" y="300.23" width="26.64" height="11.34" style="fill:#fafafa;opacity:0.2"></rect><rect x="208.49" y="300.23" width="26.64" height="11.34" style="fill:#fafafa;opacity:0.2"></rect><rect x="236.68" y="300.23" width="26.64" height="11.34" style="fill:#fafafa;opacity:0.2"></rect><rect x="264.87" y="300.23" width="26.64" height="11.34" style="fill:#fafafa;opacity:0.2"></rect><rect x="293.06" y="300.23" width="26.64" height="11.34" style="fill:#fafafa;opacity:0.2"></rect><rect x="321.25" y="300.23" width="12.54" height="11.34" style="fill:#fafafa;opacity:0.2"></rect><rect x="166.21" y="312.58" width="26.64" height="11.34" style="fill:#fafafa;opacity:0.2"></rect><rect x="194.4" y="312.58" width="26.64" height="11.34" style="fill:#fafafa;opacity:0.2"></rect><rect x="222.59" y="312.58" width="26.64" height="11.34" style="fill:#fafafa;opacity:0.2"></rect><rect x="250.78" y="312.58" width="26.64" height="11.34" style="fill:#fafafa;opacity:0.2"></rect><rect x="278.96" y="312.58" width="26.64" height="11.34" style="fill:#fafafa;opacity:0.2"></rect><rect x="307.15" y="312.58" width="26.64" height="11.34" style="fill:#fafafa;opacity:0.2"></rect><rect x="166.21" y="324.93" width="12.54" height="11.34" style="fill:#fafafa;opacity:0.2"></rect><rect x="180.3" y="324.93" width="26.64" height="11.34" style="fill:#fafafa;opacity:0.2"></rect><rect x="208.49" y="324.93" width="26.64" height="11.34" style="fill:#fafafa;opacity:0.2"></rect><rect x="236.68" y="324.93" width="26.64" height="11.34" style="fill:#fafafa;opacity:0.2"></rect><rect x="264.87" y="324.93" width="26.64" height="11.34" style="fill:#fafafa;opacity:0.2"></rect><rect x="293.06" y="324.93" width="26.64" height="11.34" style="fill:#fafafa;opacity:0.2"></rect><rect x="321.25" y="324.93" width="12.54" height="11.34" style="fill:#fafafa;opacity:0.2"></rect><rect x="166.21" y="337.27" width="26.64" height="11.34" style="fill:#fafafa;opacity:0.2"></rect><rect x="194.4" y="337.27" width="26.64" height="11.34" style="fill:#fafafa;opacity:0.2"></rect><rect x="222.59" y="337.27" width="26.64" height="11.34" style="fill:#fafafa;opacity:0.2"></rect><rect x="250.78" y="337.27" width="26.64" height="11.34" style="fill:#fafafa;opacity:0.2"></rect><rect x="278.96" y="337.27" width="26.64" height="11.34" style="fill:#fafafa;opacity:0.2"></rect><rect x="307.15" y="337.27" width="26.64" height="11.34" style="fill:#fafafa;opacity:0.2"></rect><rect x="166.21" y="349.62" width="12.54" height="11.34" style="fill:#fafafa;opacity:0.2"></rect><rect x="180.3" y="349.62" width="26.64" height="11.34" style="fill:#fafafa;opacity:0.2"></rect><rect x="208.49" y="349.62" width="26.64" height="11.34" style="fill:#fafafa;opacity:0.2"></rect><rect x="236.68" y="349.62" width="26.64" height="11.34" style="fill:#fafafa;opacity:0.2"></rect><rect x="264.87" y="349.62" width="26.64" height="11.34" style="fill:#fafafa;opacity:0.2"></rect><rect x="293.06" y="349.62" width="26.64" height="11.34" style="fill:#fafafa;opacity:0.2"></rect><rect x="321.25" y="349.62" width="12.54" height="11.34" style="fill:#fafafa;opacity:0.2"></rect><rect x="166.21" y="361.96" width="26.64" height="11.34" style="fill:#fafafa;opacity:0.2"></rect><rect x="194.4" y="361.96" width="26.64" height="11.34" style="fill:#fafafa;opacity:0.2"></rect><rect x="222.59" y="361.96" width="26.64" height="11.34" style="fill:#fafafa;opacity:0.2"></rect><rect x="250.78" y="361.96" width="26.64" height="11.34" style="fill:#fafafa;opacity:0.2"></rect><rect x="278.96" y="361.96" width="26.64" height="11.34" style="fill:#fafafa;opacity:0.2"></rect><rect x="307.15" y="361.96" width="26.64" height="11.34" style="fill:#fafafa;opacity:0.2"></rect><rect x="166.21" y="374.31" width="12.54" height="11.34" style="fill:#fafafa;opacity:0.2"></rect><rect x="180.3" y="374.31" width="26.64" height="11.34" style="fill:#fafafa;opacity:0.2"></rect><rect x="208.49" y="374.31" width="26.64" height="11.34" style="fill:#fafafa;opacity:0.2"></rect><rect x="236.68" y="374.31" width="26.64" height="11.34" style="fill:#fafafa;opacity:0.2"></rect><rect x="264.87" y="374.31" width="26.64" height="11.34" style="fill:#fafafa;opacity:0.2"></rect><rect x="293.06" y="374.31" width="26.64" height="11.34" style="fill:#fafafa;opacity:0.2"></rect><rect x="321.25" y="374.31" width="12.54" height="11.34" style="fill:#fafafa;opacity:0.2"></rect><rect x="166.21" y="386.66" width="26.64" height="11.34" style="fill:#fafafa;opacity:0.2"></rect><rect x="194.4" y="386.66" width="26.64" height="11.34" style="fill:#fafafa;opacity:0.2"></rect><rect x="222.59" y="386.66" width="26.64" height="11.34" style="fill:#fafafa;opacity:0.2"></rect><rect x="250.78" y="386.66" width="26.64" height="11.34" style="fill:#fafafa;opacity:0.2"></rect><rect x="278.96" y="386.66" width="26.64" height="11.34" style="fill:#fafafa;opacity:0.2"></rect><rect x="307.15" y="386.66" width="26.64" height="11.34" style="fill:#fafafa;opacity:0.2"></rect><rect x="166.21" y="263.19" width="26.64" height="11.34" style="fill:#fafafa;opacity:0.2"></rect><rect x="194.4" y="263.19" width="26.64" height="11.34" style="fill:#fafafa;opacity:0.2"></rect><rect x="222.59" y="263.19" width="26.64" height="11.34" style="fill:#fafafa;opacity:0.2"></rect><rect x="250.78" y="263.19" width="26.64" height="11.34" style="fill:#fafafa;opacity:0.2"></rect><rect x="278.96" y="263.19" width="26.64" height="11.34" style="fill:#fafafa;opacity:0.2"></rect><rect x="307.15" y="263.19" width="26.64" height="11.34" style="fill:#fafafa;opacity:0.2"></rect><rect x="194.55" y="300.23" width="110.9" height="99.94" style="fill:#263238"></rect><rect x="197.36" y="307.4" width="105.29" height="93.12" style="opacity:0.2"></rect><path d="M201.6,401.18s-6.13-6.6-1.88-9.37,4.52-5.66,1.88-15.42-5.52-21.1,2.25-23.73,5.66-4,10.67-13.46,12.66-.52,18.73-5.8,5.27-16.9,15-18.34,11.75,10.17,18.93,11.75,14-5.28,18.78.26,1.72,20.05,6.53,24.53,9,5.54,8.51,15-3.08,13.45,0,22.95S296,403.7,296,403.7Z" style="fill:#407BFF;opacity:0.2"></path><path d="M245.6,322.24c15,12,9.5,32.55,9.5,32.55s6.94-.83,6.24-10.71,4.44-11.66,4.44-11.66-4,3.25,0,8.78,12,12,7.59,20.62c0,0,6.26-1.34,7.05-7.79s-2-10.33-2-10.33,14.64,12.51,7.12,29.77c0,0,7.65-2,8.31-9.06,0,0,8.75,13.53-3.17,25.31-14,13.81-42.52,11.84-42.52,11.84s-26,2.73-39.37-10c-6.2-5.89-8.17-22.29-2.11-30.92,0,0-4.61,14.53,9.63,19.28,0,0-5.21-6-2.24-17.93,2.24-9,11.15-16,5.8-20.82,0,0,6.07,0,5.54,8-.4,6.12,2.77,9,2.77,9s-3.17-4.72,2-9,14.24-9.36,11.86-17.37a12.67,12.67,0,0,1,3.3,11.41A16.64,16.64,0,0,0,249,331,26,26,0,0,0,245.6,322.24Z" style="fill:#407BFF"></path><path d="M251.54,343.13a38.76,38.76,0,0,1,0,20s14.2-3.92,13.84-13.52c0,0,4,5.18,1.32,10.78a8.76,8.76,0,0,0,2.17-7.26s4.95,6.26-.72,13.74c0,0,12.13,1,13.85-6.48,0,0,3.43,12.81-6.2,19.13,0,0,11.74-1,15.83-6a15.33,15.33,0,0,1-10.55,16.26s7.41-1.3,10.63-5.9c0,0-7.85,16.68-43.53,16.68S208,384.84,208,384.84s5.14,7.33,14,7.76c0,0-9.5-1.87-12.92-11.07,0,0,7,6,16.35,3.74,0,0-6.2-2.16-7-11.22s4.48-17.26,4.48-17.26-1.45,7.33,5.28,10.35c0,0-2.9-3.3-2.64-6.9a7.47,7.47,0,0,0,7.91,3.6s-2.9-2.16-2-8.06,10-5,11.61-11.07c0,0,1.05,4.31-1.19,7.76,0,0,8-7.47,8.09-15.82a26.85,26.85,0,0,1-1.82,16.83A17.78,17.78,0,0,0,251.54,343.13Z" style="fill:#fafafa;opacity:0.2"></path><path d="M252.72,397.78a27.67,27.67,0,0,0,16.15-2.45h-3.35s7.38-2.15,6.46-8.34-3.11-8.05-3.11-8.05,1.39,5.9-3.88,7.48a6.92,6.92,0,0,0,.92-6.19c-1.05-3.88-4.79-4.89-4.57-9.49,0,0-2.68,3-2,5.75a4.67,4.67,0,0,1-2.64-3.74c-.26-2.73,2.77-5.89,2.77-5.89s-9-1.73-10.15,9.06c0,0-5-7.8-1.85-13.9,0,0-2.9,2.91-3.17,6.1a6.39,6.39,0,0,1-.27-3.71s-10,4.25-4.74,15.64c0,0-4.08-3.84-4.22-6,0,0-6.33,13.09,5.28,16.11,0,0-5.67,1.58-9.1-1.59a12,12,0,0,0,11.34,8.2s-5.54.72-7.78-.28C234.79,396.49,243.49,401.38,252.72,397.78Z" style="fill:#fafafa;opacity:0.2"></path><rect x="156.9" y="232.51" width="186.2" height="28.6" style="fill:#407BFF"></rect><g style="opacity:0.2"><path d="M222.37,252.19l-.47.55c-2.4.44-32.92,3-53.91,3-4.17,0-8-.1-11.09-.33v-1c15.69,1.23,48.86-1.12,60.68-2.2-11.25-1-42.75-3.26-60.68-4.5v-1c6.61.46,18.21,1.27,29.71,2.11C222.33,251.39,222.33,251.56,222.37,252.19Z"></path><path d="M188.76,252.48c-.06.45-.13,1-15,1.08h-2c-5.64,0-10.81-.13-14.92-.36v-1c8.59.49,20.47.41,26.79.15-6.78-.56-19.46-1.32-26.79-1.74v-1c9.27.53,27.15,1.61,30.87,2.13C188.17,251.81,188.84,251.91,188.76,252.48Z"></path><path d="M343.1,249.27v1c-8,.09-19.46.48-32.25.93-18.18.62-38,1.3-52.8,1.3-7.26,0-13.31-.16-17.39-.57-16.67-1.69-66.84-5.93-83.76-7.35v-1c16.84,1.42,67.16,5.66,83.86,7.36,12.33,1.25,43,.2,70.05-.73C323.61,249.75,335.12,249.36,343.1,249.27Z"></path><path d="M343.1,252.17v1c-2.9,0-6.49.12-10.84.39-14.48.89-88.92,1.22-99.46,1.14-6.32,0-15.26.94-23.91,1.89-5.87.64-11.41,1.25-16,1.54-8.7.54-27.52.82-36,.93v-1c8.46-.11,27.25-.39,35.92-.93,4.57-.28,10.1-.89,16-1.53,8.68-1,17.69-1.93,24-1.9,10.53.08,84.93-.25,99.39-1.14C336.58,252.29,340.19,252.18,343.1,252.17Z"></path><path d="M343.1,255.62v.88c-5.52,0-14.24.08-22.62.21-4.22.05-13.73.05-24.74.05-25.55,0-60.55,0-66.56.71-1.45.18-3.93.53-7.07,1-5.07.73-11.84,1.71-19.37,2.66h-7.29c10.32-1.22,19.88-2.59,26.5-3.53,3.15-.45,5.63-.8,7.09-1,6.08-.73,41.12-.72,66.7-.72,11,0,20.51,0,24.72-.05C328.85,255.7,337.57,255.63,343.1,255.62Z"></path><path d="M343.1,259v.56c-13.94.25-48.71.76-57.64-.11-9.5-.93-43-.6-57.11,1.66h-3.09c12.43-2.81,49.87-3.24,60.38-2.22C294.36,259.75,329.23,259.24,343.1,259Z"></path><path d="M343.1,246.49v1c-14.27.43-52,1.48-78,1.48-10.84,0-19.64-.18-23.9-.67-14.7-1.69-63.22-6.25-84.28-7.1v-1c21.09.85,69.68,5.42,84.4,7.11C255.7,249,322.94,247.1,343.1,246.49Z"></path><path d="M343.1,240.14v1c-18.37.27-84.87,1.24-98.17,1.24-15,0-33.34-3.59-34.63-4.89l-.24-.24.11-.37c.33-.8,7.45-2.56,16.65-4.37h5.57c-9.81,1.84-18.26,3.74-20.71,4.58,3.5,1.23,19,4.29,33.25,4.29C258.23,241.38,324.75,240.41,343.1,240.14Z"></path><path d="M343.1,237.06v1c-13.5.46-59.89,2-85.81,2-8.38,0-14.62-.16-16.93-.56-5.6-1-8.05-1.55-8-2.83,0-1,1.51-2.13,13.65-4.14h6.58c-12.33,1.8-18.78,3.21-19.23,4.21.35.57,4.8,1.35,7.2,1.77C249.75,240.11,325.51,237.66,343.1,237.06Z"></path><path d="M343.1,234.23v1c-4.62.1-13.26.39-22.82.72-19,.63-43.22,1.45-56,1.45a68.14,68.14,0,0,1-8.3-.29c-.47-.08-1.44-.25-1.39-1,0-.47.11-1.52,14.87-3.62h7.64c-9.94,1.24-18.77,2.69-21.06,3.59l.11,0c4.77.82,39.09-.34,64.15-1.18C332.76,234.51,339.51,234.3,343.1,234.23Z"></path><path d="M210.37,232.51c-7.64,2-19.54,3.91-36.47,3.91-5.19,0-10.85-.19-17-.62v-1c22.84,1.59,38.8-.15,49.06-2.29Z"></path><path d="M343.1,243.37v1c-26.05,1.13-46.88,1.57-63.61,1.57-45.41,0-60.68-3.26-68.47-4.92a39,39,0,0,0-5.94-1c-7.55-.39-36-1.77-48.18-2.36v-1c12.18.6,40.68,2,48.24,2.37a40.32,40.32,0,0,1,6.09,1C221.85,242.31,246.46,247.55,343.1,243.37Z"></path></g><path d="M303.14,392H196.86a.5.5,0,0,0-.5.5v9a.5.5,0,0,0,.5.5.51.51,0,0,0,.5-.5v-4h25.12v4.93a.5.5,0,0,0,.5.5.5.5,0,0,0,.5-.5v-4.93h26v4.93a.5.5,0,0,0,1,0v-4.93h26v4.93a.5.5,0,0,0,.5.5.5.5,0,0,0,.5-.5v-4.93h25.12v4a.51.51,0,0,0,.5.5.5.5,0,0,0,.5-.5v-9A.5.5,0,0,0,303.14,392Zm-105.78,4.52V393h25.12v3.52Zm26.12,0V393h26v3.52Zm27,0V393h26v3.52Zm27,0V393h25.12v3.52Z" style="fill:#263238"></path><path d="M303.14,392H196.86a.5.5,0,0,0-.5.5v9a.5.5,0,0,0,.5.5.51.51,0,0,0,.5-.5v-4h25.12v4.93a.5.5,0,0,0,.5.5.5.5,0,0,0,.5-.5v-4.93h26v4.93a.5.5,0,0,0,1,0v-4.93h26v4.93a.5.5,0,0,0,.5.5.5.5,0,0,0,.5-.5v-4.93h25.12v4a.51.51,0,0,0,.5.5.5.5,0,0,0,.5-.5v-9A.5.5,0,0,0,303.14,392Zm-105.78,4.52V393h25.12v3.52Zm26.12,0V393h26v3.52Zm27,0V393h26v3.52Zm27,0V393h25.12v3.52Z" style="fill:#fafafa;opacity:0.4"></path><rect x="141.57" y="400.42" width="216.87" height="14.97" style="fill:#263238"></rect><rect x="135.03" y="400.15" width="229.95" height="5.93" style="fill:#263238"></rect><rect x="135.03" y="400.15" width="229.95" height="5.93" style="fill:#fafafa;opacity:0.2"></rect><path d="M298.79,210.63s2.8-7.69,4.19-8.65,3.33-7.62,1.66-10.44a11,11,0,0,0-4.58,6.47s-.08-7.67-4-9.52c0,0-2.55,5.86-.69,10.54a5.86,5.86,0,0,0-3.69-1s1.38,3.05,3.45,3.51l2.09,10.75Z" style="fill:#407BFF"></path><path d="M298.79,210.63s2.8-7.69,4.19-8.65,3.33-7.62,1.66-10.44a11,11,0,0,0-4.58,6.47s-.08-7.67-4-9.52c0,0-2.55,5.86-.69,10.54a5.86,5.86,0,0,0-3.69-1s1.38,3.05,3.45,3.51l2.09,10.75Z" style="opacity:0.2"></path><path d="M299.4,212.27a6.59,6.59,0,0,1,4.5-5.67c4.38-1.62,5.42-3.07,5.42-3.07s-2.66-1.2-4.68.53a20.09,20.09,0,0,0,4.68-9.28,9.05,9.05,0,0,0-5,6.25s.46-4.35-2.19-6.25c0,0-1.85,3.63-.58,7a7,7,0,0,0-3-1.84s-.74,4.45,1.43,6a30.81,30.81,0,0,0-1.55,7C298.48,215.47,299.4,212.27,299.4,212.27Z" style="fill:#407BFF"></path><path d="M297.87,211.17l-.38-3.64a2.5,2.5,0,0,0,1.68-2.14,2.41,2.41,0,0,0-2.14.84s1.49-4.84-.75-7.59a11.17,11.17,0,0,0-1.4,3.72s.41-5.92-3.66-9.83c0,0-1.09,6.57,1.89,10.13a6.09,6.09,0,0,0-5-.81s1.47,3.85,5,3.9c0,0-2.95.2-4,2.44a4.9,4.9,0,0,0,3.83.65c2.14-.56,3.88,3.43,3.88,3.43Z" style="fill:#407BFF"></path><polygon points="300.24 213.46 301.24 211.09 293.94 211.09 294.94 213.46 292.43 217.46 294.43 232.86 300.75 232.86 302.75 217.46 300.24 213.46" style="fill:#263238"></polygon></g><g id="freepik--Character--inject-122"><path d="M344.93,225.21l-6.87-4.84-3.22,6.6s4.33,4.06,8.74,1.95Z" style="fill:#e4897b"></path><polygon points="332.12 219.62 330.9 225.12 334.84 226.97 338.06 220.37 332.12 219.62" style="fill:#e4897b"></polygon><path d="M392.48,225.71c-9.46-.86-21.17,5.4-26.91,4.74s-21-5.4-21.35-5.82-2.6,5.82-2.6,5.82,13.3,8.75,26.17,9.75A60.93,60.93,0,0,0,391,237.45Z" style="fill:#407BFF"></path><path d="M392.47,225.71,391,237.45a50.29,50.29,0,0,1-7,1.8,62.47,62.47,0,0,1-6.74.91,59,59,0,0,1-9.43,0c-12.88-1-26.17-9.75-26.17-9.75s2.21-6.23,2.59-5.82,15.62,5.16,21.36,5.82S383,224.85,392.47,225.71Z" style="fill:#fff;opacity:0.6000000000000001"></path><path d="M384,239.25a62.47,62.47,0,0,1-6.74.91c2.1-4,7.65-5.21,7.65-5.21A8.55,8.55,0,0,1,384,239.25Z" style="opacity:0.1"></path><path d="M421,199.49c3.08,3.86,5.33,9.54,2,10.53s.75,4.41,1.63,6.12.74,5.63-2.69,4.86.4,1.93-3.69,3.61-8.46-1.13-12.36-1.63-9.6,1.34-10.68-.64-1.35-5.27-3.6-6.07-5.4-2.44-3-5.18,4-2.07,2.37-6,5-9.1,13.44-10.28S421,199.49,421,199.49Z" style="fill:#263238"></path><path d="M411.12,213.24c-1.78,4-4.37,11.38-2.1,14.58,0,0-3.85-1.22-13,2.63-1.87-3.86.1-4.68.1-4.68,4.9-.36,5.58-3.78,5.52-7.1Z" style="fill:#e4897b"></path><path d="M407.25,215.46l-5.63,3.21a12.8,12.8,0,0,1-.14,2.33c1.83,0,4.72-1.51,5.34-3.31A6.28,6.28,0,0,0,407.25,215.46Z" style="opacity:0.2"></path><path d="M416,205.46c-2.32,6.51-3.16,9.31-7.5,11.92-6.53,3.93-14,.12-13.72-6.85.3-6.27,4.05-15.86,11.32-17A8.86,8.86,0,0,1,416,205.46Z" style="fill:#e4897b"></path><path d="M408.34,190.45c-5.06,0-12.46,4.65-6,6-.06,2.07,3.72,2.24,6.51,1.27-.45,1.5,2,4.6,5.46,3.82-2,1-2.4,6.18,0,6.58s7.39,2,6.93-6.58S413.74,190.45,408.34,190.45Z" style="fill:#263238"></path><path d="M407.24,205.22c-.17.55-.6.93-1,.85s-.51-.6-.34-1.16.6-.94,1-.85S407.42,204.66,407.24,205.22Z" style="fill:#263238"></path><path d="M400.3,203.36c-.18.55-.61.94-1,.85s-.51-.6-.34-1.16.61-.93,1-.85S400.47,202.8,400.3,203.36Z" style="fill:#263238"></path><path d="M400.1,202.27l-1.2-.7S399.26,202.77,400.1,202.27Z" style="fill:#263238"></path><path d="M402.06,205.08a17.23,17.23,0,0,1-3.06,3.08,2.3,2.3,0,0,0,1.85.83Z" style="fill:#de5753"></path><path d="M403.38,211.79a5.45,5.45,0,0,1-.95-.14.15.15,0,0,1-.11-.2.17.17,0,0,1,.21-.12,4.86,4.86,0,0,0,4.08-.89.18.18,0,0,1,.24,0,.17.17,0,0,1,0,.24A5.07,5.07,0,0,1,403.38,211.79Z" style="fill:#263238"></path><path d="M409.35,202a.3.3,0,0,1-.22-.14,2.44,2.44,0,0,0-2-1.17.31.31,0,0,1-.32-.33.35.35,0,0,1,.35-.34,3.08,3.08,0,0,1,2.59,1.45.35.35,0,0,1-.11.47A.39.39,0,0,1,409.35,202Z" style="fill:#263238"></path><path d="M398.55,199a.31.31,0,0,1-.22-.09.35.35,0,0,1,0-.48,3.52,3.52,0,0,1,3-1,.3.3,0,0,1,.23.39.36.36,0,0,1-.41.26,2.86,2.86,0,0,0-2.35.84A.39.39,0,0,1,398.55,199Z" style="fill:#263238"></path><path d="M407.05,204.13l-1.2-.7S406.21,204.63,407.05,204.13Z" style="fill:#263238"></path><path d="M406,208.37a2.88,2.88,0,1,1,2.88-2.88A2.88,2.88,0,0,1,406,208.37Zm0-5.26a2.38,2.38,0,1,0,2.38,2.38A2.38,2.38,0,0,0,406,203.11Z" style="fill:#407BFF"></path><path d="M399,206.31a2.88,2.88,0,1,1,2.88-2.88A2.88,2.88,0,0,1,399,206.31Zm0-5.26a2.38,2.38,0,1,0,2.38,2.38A2.39,2.39,0,0,0,399,201.05Z" style="fill:#407BFF"></path><path d="M403.2,204.87a1.61,1.61,0,0,0-1.65-.58l-.13-.48a2.1,2.1,0,0,1,2.18.76Z" style="fill:#407BFF"></path><rect x="411.58" y="203.64" width="0.5" height="6.61" transform="translate(101.89 548.07) rotate(-74.42)" style="fill:#407BFF"></rect><path d="M416.62,211.41a5.51,5.51,0,0,1-3.89,1.69c-1.88,0-2.18-1.95-1.13-3.56.95-1.46,3.08-3.2,4.71-2.41S417.92,210.08,416.62,211.41Z" style="fill:#e4897b"></path><path d="M391.15,415.39c5.34,0,6-.08,9-.18,2.57-.1,3.18.23,5.25.18,1.72,0,1.66-1.69,1.12-3.59-.26-.95-.67-3-1-4.51l-7.82-.56c-1.1,2.1-3.58,5.09-6.59,5.5S389,415.39,391.15,415.39Z" style="fill:#407BFF"></path><path d="M343.8,400.74a54,54,0,0,0,12.38-.57c2.51-.3,2.32.25,4.87,0a2.45,2.45,0,0,0,1.81-3.51,21.59,21.59,0,0,1-1.79-3.76l-6.48-1.32c-1.22,2.4-7.33,6.18-11.33,6.09C340.4,397.64,341.71,400.54,343.8,400.74Z" style="fill:#407BFF"></path><path d="M404.76,269.28s-5.13,22.14-8.46,25.19a42.67,42.67,0,0,1-4,4.9,149.19,149.19,0,0,1-16.66,15.26c-3.56,2.87-7.68,6-12.44,9.41,5.23,10.32-1.78,48.34-2.09,68.89-.78,1-7-.05-7.45-1.1,0,0-12.37-62.83-5.06-76.86,8.2-15.74,27.32-37.69,27.32-37.69l2.16-9.17Z" style="fill:#263238"></path><path d="M388.23,303.53c-3.08,3-7.21,6.73-12.63,11.1A32.53,32.53,0,0,1,385.31,301,15.06,15.06,0,0,0,388.23,303.53Z" style="opacity:0.2"></path><path d="M385.48,269.28l2.66,34.09c1.85,13.79,4.67,20.58,6.32,31.32,3.44,22.32,3.87,58.13,3,72.73,1.25.72,5.78.22,8.25-.55,0,0,14.81-47.88,3.93-70,7-51.64-3.15-64.28-3.15-64.28Z" style="fill:#263238"></path><path d="M417.55,238.29c-8,17.23-10.35,26.21-11.05,34.32l-28.45-4.5c.65-9.4,1.14-15,1.82-20.71a87.19,87.19,0,0,1,1.88-11.6c.77-4.05,4-8.23,7.9-9.61a7.8,7.8,0,0,1,2.83-.48c1.42,0,2.9.08,4.33.18a93.07,93.07,0,0,1,12.92,2c1.22.26,2.4.54,3.51.84a5.21,5.21,0,0,1,.7.23A6.72,6.72,0,0,1,417.55,238.29Z" style="fill:#407BFF"></path><path d="M418.2,235.91a7.51,7.51,0,0,1-.66,2.38q-1.34,2.88-2.46,5.46t-2,4.64c-1.23,3-2.25,5.71-3.08,8.18a66.07,66.07,0,0,0-3.55,16L378,268.11c.65-9.4,1.14-15,1.82-20.71a87.19,87.19,0,0,1,1.88-11.6c.77-4.05,4-8.23,7.9-9.61a7.8,7.8,0,0,1,2.83-.48c1.42,0,2.9.08,4.33.18a93.07,93.07,0,0,1,12.92,2c1.22.26,2.4.54,3.51.84a5.21,5.21,0,0,1,.7.23A6.62,6.62,0,0,1,418.2,235.91Z" style="fill:#fff;opacity:0.6000000000000001"></path><path d="M418.2,235.91a7.51,7.51,0,0,1-.66,2.38q-1.34,2.88-2.46,5.46t-2,4.64c-4.5-6.29,1.68-14.09,1.68-14.09A16.13,16.13,0,0,1,418.2,235.91Z" style="opacity:0.1"></path><path d="M404.38,281.66l-1-1.92a2.5,2.5,0,0,1,0-2.29l1.76-3.34a4.69,4.69,0,0,1,3.51-2.44l.93-.12c1.82,3.07,1.51,7.74,1.51,7.74l.06,1.34a2.08,2.08,0,0,1-1.94,2.23l-2.65.15A2.41,2.41,0,0,1,404.38,281.66Z" style="fill:#e4897b"></path><path d="M413.94,229c8.12.86,20.51,24.6,20.77,32.11s-24.09,14.47-24.09,14.47l-3.86-3.46a107.2,107.2,0,0,1,17.41-12.37s-4.75-11.43-12.27-16.18c0,0-2.35-5.37-1.9-8.62S413.94,229,413.94,229Z" style="fill:#407BFF"></path><path d="M413.94,229c8.12.86,20.51,24.6,20.77,32.11s-24.09,14.47-24.09,14.47l-3.86-3.46a107.2,107.2,0,0,1,17.41-12.37s-4.75-11.43-12.27-16.18c0,0-2.35-5.37-1.9-8.62S413.94,229,413.94,229Z" style="fill:#fff;opacity:0.6000000000000001"></path><path d="M393.18,226.82l3.95-5,14,1.82.78,5S393.31,231,393.18,226.82Z" style="fill:#407BFF"></path><path d="M393.18,226.82l3.95-5,14,1.82.78,5S393.31,231,393.18,226.82Z" style="fill:#fff;opacity:0.6000000000000001"></path><path d="M394.06,225.71s-.88,2.57,2.54,3.82,15.3-.92,15.3-.92S396.14,231.05,394.06,225.71Z" style="opacity:0.1"></path><path d="M334.13,203.49c5.94.6,5.63,1.51,6.42-1.63s.21-4.69,2.72-4.86,1.41,9.2-.45,10.27-9.06-.1-9.06-.1Z" style="fill:#407BFF"></path><path d="M333,208.86s-3.86.49-5.65-.57-.92-5.39-2.84-5.2-2.2,5.86-.06,7.83,8.1,1.67,8.1,1.67Z" style="fill:#407BFF"></path><path d="M329.8,220.46c-.1-.53.53-24.25,2.15-28.72s5.41-2.89,5.77,2.25-3.31,27.08-3.31,27.08Z" style="fill:#407BFF"></path><g style="opacity:0.2"><path d="M333.19,220.1c.62-5.06,1.18-10.13,1.64-15.21.21-2.54.43-5.08.55-7.63.05-1.27.09-2.54.06-3.81,0-.63-.05-1.26-.13-1.88a6.65,6.65,0,0,0-.16-.91,1.39,1.39,0,0,0-.33-.69c-.08,0-.09-.05-.17,0a1,1,0,0,0-.23.28,3.63,3.63,0,0,0-.35.83,16.2,16.2,0,0,0-.47,1.82c-.25,1.25-.43,2.51-.59,3.77-.33,2.52-.54,5.06-.75,7.6s-.37,5.09-.51,7.64-.28,5.09-.33,7.64c-.06-5.1.13-10.21.45-15.31.16-2.54.38-5.09.69-7.63.15-1.27.33-2.54.57-3.8a17.81,17.81,0,0,1,.47-1.88A4.7,4.7,0,0,1,334,190a1.55,1.55,0,0,1,.38-.45.65.65,0,0,1,.73,0,1.71,1.71,0,0,1,.53,1,8.21,8.21,0,0,1,.17,1c.07.65.1,1.29.11,1.93,0,1.29,0,2.57-.08,3.85-.13,2.55-.34,5.1-.62,7.63C334.68,210,334,215.06,333.19,220.1Z"></path></g><g style="opacity:0.2"><path d="M337.18,205.22A5,5,0,0,0,340,205c.38-.21.5-.72.64-1.17s.23-1,.32-1.43c.18-1,.36-1.93.58-2.9A7.32,7.32,0,0,1,342,198a.92.92,0,0,1,.33-.37.36.36,0,0,1,.35,0,.5.5,0,0,1,.27.21,2,2,0,0,1,.24.81,16.57,16.57,0,0,1,0,3,21.16,21.16,0,0,1-.42,3,7.16,7.16,0,0,1-.19.73,1.84,1.84,0,0,1-.45.68,3.08,3.08,0,0,1-1.41.62,8.91,8.91,0,0,1-3-.08,9.76,9.76,0,0,0,2.91-.16,2.78,2.78,0,0,0,1.24-.61,2.2,2.2,0,0,0,.49-1.26,24.08,24.08,0,0,0,.32-5.8,2,2,0,0,0-.15-.6c-.07,0,.05,0,0,0a.49.49,0,0,0-.15.18,6.49,6.49,0,0,0-.45,1.33l-.64,2.88c-.12.48-.24,1-.4,1.43a6.15,6.15,0,0,1-.28.71,1.19,1.19,0,0,1-.55.58,3.21,3.21,0,0,1-1.49.25A6.43,6.43,0,0,1,337.18,205.22Z"></path></g><g style="opacity:0.2"><path d="M329.74,209.77a4.4,4.4,0,0,1-2.56-.16,2.21,2.21,0,0,1-1-.89,6.31,6.31,0,0,1-.5-1.21c-.26-.83-.4-1.68-.63-2.48a4.77,4.77,0,0,0-.2-.57c-.07-.17-.2-.34-.24-.33s-.31.4-.35.78a8.11,8.11,0,0,0,0,2.46,5.56,5.56,0,0,0,.81,2.29,4,4,0,0,0,2.05,1.25,6.19,6.19,0,0,0,2.5.24,5.82,5.82,0,0,1-2.56,0,6,6,0,0,1-1.23-.44,2.69,2.69,0,0,1-1.06-.81,5.35,5.35,0,0,1-1-2.45,8.28,8.28,0,0,1,0-2.63,2.77,2.77,0,0,1,.2-.66,1.15,1.15,0,0,1,.24-.35.58.58,0,0,1,.51-.13c.38.13.45.41.56.61a5.17,5.17,0,0,1,.21.63c.21.84.36,1.68.56,2.49a2.66,2.66,0,0,0,1.24,2A4.42,4.42,0,0,0,329.74,209.77Z"></path></g><rect x="323.86" y="217.13" width="16.35" height="9.19" transform="translate(23.82 -32.07) rotate(5.74)" style="fill:#263238"></rect><rect x="323.86" y="217.13" width="16.35" height="9.19" transform="translate(23.82 -32.07) rotate(5.74)" style="fill:#fff;opacity:0.2"></rect></g></svg>